<svg width="1921" height="639" viewBox="0 0 1921 639" fill="none" xmlns="http://www.w3.org/2000/svg">
<path opacity="0.2" d="M1898.01 127.414H1889.64H1886.64V284.096H1877.95V178.248H1854.34V196.623H1789.65V206.085H1784.4V247.016H1771.74V280.685H1755.65V321.836H1749.85V127.964H1745.24V106.288H1737.09V84.7227H1731.62V63.0469H1696.64V84.7227H1691.17V106.288H1683.02V127.964H1679.16V262.31H1669.71V321.836H1658.45V321.066H1655.45V319.526H1658.45V317.325H1655.45V315.785H1658.45V313.584H1655.45V312.044H1658.45V309.843H1655.45V308.303H1658.45V306.102H1655.45V304.562H1658.45V302.361H1655.45V300.821H1658.45V298.62H1655.45V297.08H1658.45V294.879H1655.45V293.339H1658.45V291.138H1655.45V289.598H1658.45V287.397H1655.45V285.857H1658.45V283.656H1655.45V282.116H1658.45V279.915H1655.45V278.375H1658.45V276.174H1655.45V274.634H1658.45V272.433H1655.45V270.893H1658.45V268.692H1655.45V267.152H1658.45V264.951H1655.45V263.411H1658.45V261.21H1655.45V259.67H1658.45V257.469H1655.45V255.929H1658.45V253.728H1655.45V252.188H1658.45V249.987H1655.45V248.447H1658.45V246.246H1655.45V244.706H1658.45V242.505H1655.45V241.515H1658.45V239.314H1655.45V237.774H1658.45V235.573H1655.45V234.033H1658.45V231.832H1655.45V230.292H1658.45V228.091H1655.45V226.551H1658.45V224.35H1655.45V222.81H1658.45V220.609H1655.45V216.978H1653.09V213.017H1646.76V202.014H1642.04V188.04L1627.77 185.51L1624.44 184.96V161.853H1622.51V184.519L1616.72 183.529V202.014H1612.86V213.017H1606.53V216.978H1604.17V220.609H1571.12V243.825H1542.91L1518.13 251.527L1516.84 251.968V262.09H1520.92V264.621H1516.84V267.152H1520.92V269.682H1516.84V272.213H1520.92V274.744H1516.84V277.274H1520.92V279.805H1516.84V282.336H1520.92V284.096H1490.56L1479.4 259.78L1469.1 282.006C1469.21 274.524 1469.42 266.932 1469.42 259.34C1469.42 256.369 1469.42 253.398 1469.42 250.427C1469.42 242.065 1469.31 233.703 1469.1 225.45C1468.99 221.819 1468.89 218.188 1468.78 214.558C1468.56 206.745 1468.24 199.043 1467.81 191.231C1467.6 187.49 1467.49 183.749 1467.17 179.898C1467.17 178.908 1467.06 177.918 1466.95 177.037H1388.42V177.147C1388.21 181.439 1387.89 185.73 1387.67 189.911C1387.67 190.681 1387.57 191.561 1387.57 192.442C1387.35 197.283 1387.14 202.014 1386.92 206.855C1386.92 207.846 1386.82 208.726 1386.82 209.716C1386.6 214.668 1386.49 219.619 1386.39 224.57V225.12C1386.28 230.072 1386.17 235.133 1386.17 240.084C1386.17 240.745 1386.17 241.295 1386.17 241.955C1386.17 246.906 1386.06 251.968 1386.06 256.919C1386.06 257.579 1386.06 258.349 1386.06 259.009C1386.06 261.98 1386.06 264.951 1386.17 267.922H1375.01V327.998H1361.71V326.898H1363.96V324.477H1361.71V321.506H1363.96V319.086H1361.71V316.115H1363.96V313.694H1361.71V310.723H1363.96V308.303H1361.71V305.332H1363.96V302.911H1361.71V299.94H1363.96V297.52H1361.71V294.549H1363.96V292.128H1361.71V289.157H1363.96V286.737H1361.71V283.766H1363.96V281.345H1361.71V278.375H1363.96V275.954H1361.71V272.983H1363.96V270.673H1361.71V267.702H1363.96V265.391H1361.71V262.42H1363.96V260.11H1361.71V258.019H1363.96V255.709H1361.71V252.738H1363.96V250.317H1361.71V247.346H1363.96V245.036H1361.71V242.065H1363.96V239.754H1361.71V236.783H1363.96V234.473H1361.71V231.502H1363.96V229.191H1361.71V226.111H1363.96V223.8H1361.71V220.829H1363.96V218.409H1361.71V215.438H1363.96V213.127H1361.71V210.156H1363.96V207.846H1361.71V202.564H1363.96V199.373H1356.24V196.403H1360.32L1347.44 182.649H1338.54V178.138C1338.54 177.808 1338.32 177.588 1337.9 177.478V163.834H1336.18V177.478C1335.75 177.588 1335.54 177.808 1335.54 178.138V182.649H1326.63L1313.76 196.403H1316.65V199.373H1308.93V202.564H1311.72V207.846H1308.93V210.156H1311.72V213.127H1308.93V215.438H1311.72V218.409H1308.93V220.719H1311.72V223.69H1308.93V226.001H1311.72V228.971H1308.93V231.282H1311.72V234.253H1308.93V236.563H1311.72V239.534H1308.93V241.845H1311.72V244.816H1308.93V247.126H1311.72V250.097H1308.93V252.408H1311.72V255.378H1308.93V257.689H1311.72V260.66H1308.93V262.97H1311.72V265.941H1308.93V268.252H1311.72V271.223H1308.93V273.533H1311.72V276.504H1308.93V278.925H1311.72V279.585H1294.02L1293.91 276.944L1293.8 274.634L1293.7 271.773L1293.59 269.462L1293.48 266.601L1293.37 264.291L1293.27 261.43L1293.16 259.119L1293.05 256.259L1292.95 253.948L1292.84 251.087L1292.73 248.777L1292.62 245.916L1292.52 243.605L1292.41 240.745L1292.3 238.434L1292.19 235.573L1292.09 233.263L1291.98 230.402L1291.87 228.091L1291.77 225.23L1291.66 222.92L1291.55 220.059L1291.44 217.748L1291.34 214.888L1291.23 212.577L1291.12 209.716L1291.01 207.406L1290.91 204.545L1290.8 202.234L1290.69 199.373L1290.59 197.063L1290.48 194.202L1290.37 191.891L1290.26 189.031L1290.16 186.72L1290.05 183.859L1289.94 181.549L1289.83 178.688L1289.73 176.377L1289.62 173.517L1289.51 171.206L1289.4 168.345L1289.3 166.035L1289.19 163.174L1289.08 160.863L1288.98 158.002L1288.87 155.692L1288.76 152.831L1288.65 150.52L1288.55 147.66L1288.44 145.349L1288.33 142.488L1288.22 140.178L1288.12 137.317L1288.01 135.006L1287.9 132.145L1287.58 123.453L1269.45 118.502V126.094H1263.87L1264.41 105.518L1233.08 99.2466L1229.86 132.035L1229.65 134.896L1229.44 137.207L1229.22 140.068L1229.01 142.378L1228.79 145.239L1228.58 147.55L1228.25 150.41L1228.04 152.721L1227.83 155.582L1227.61 157.892L1227.4 160.753L1227.18 163.064L1226.97 165.924L1226.75 168.235L1226.54 171.096L1226.32 173.406L1226 176.267L1225.79 178.578L1225.47 181.439L1225.25 183.749L1225.04 186.61L1224.82 188.921L1224.61 191.781L1224.39 194.092L1224.18 196.953L1223.96 199.263L1223.64 202.124L1223.43 204.435L1223.11 207.296L1222.89 209.606L1222.68 212.467L1222.46 214.778L1222.25 217.638L1222.14 218.739H1191.57V251.968H1183.41V323.597H1172.47V61.0664H1168.39V30.2581H1108.96V61.0664H1104.88V176.927H1097.27V178.138H1096.19V181.219H1097.27V182.319H1096.19V185.4H1097.27V186.5H1096.19V189.581H1097.27V190.681H1096.19V193.762H1097.27V194.862H1096.19V197.943H1097.27V199.043H1096.19V202.124H1097.27V203.224H1096.19V206.305H1097.27V207.406H1096.19V210.486H1097.27V211.587H1096.19V214.668H1097.27V215.768H1096.19V218.849H1097.27V219.949H1096.19V223.03H1097.27V224.13H1096.19V227.211H1097.27V228.311H1096.19V231.392H1097.27V232.492H1096.19V235.573H1097.27V236.673H1096.19V239.754H1097.27V245.036H1096.19V248.117H1097.27V249.217H1096.19V251.087H1078.6V182.319H1032.47V226.661H1019.17V224.24H1013.8V143.368V53.3643H1009.62V0H937.096V53.3643H933.019V280.025H923.042V190.681H905.448V150.96H899.762V132.916H818.122V150.96H812.436V295.319H793.447V202.014H724.144V260.99H708.91V318.315H699.898V153.051V148.87H696.251V147.66H700.006V143.588H696.251V142.378H700.006V138.197H696.251V136.987H700.006V132.806H696.251V131.595H700.113V127.414H696.251V126.204H700.113V122.023H696.251V120.812H700.113V116.631H696.251V115.421H700.113V99.5767C692.389 95.3956 678.12 82.7422 677.906 63.9271V63.487C677.906 63.487 677.906 63.487 677.906 63.377V61.0664H673.4V63.377H667.178V26.8472H664.925V63.377H663.638V61.0664H658.917V63.377H650.442V61.0664H645.722V63.377C645.722 82.302 638.105 95.2856 630.381 99.4667V111.24H630.595V115.421H635.423V116.631H630.488V120.812H635.315V122.023H630.488V126.204H635.315V127.414H630.488V131.595H635.423V132.806H630.488V136.987H635.423V138.197H630.381V142.378H635.423V143.588H630.381V147.77H635.423V148.98H630.166V239.204H615.79V283.876H607.744V322.717C606.35 322.166 605.062 321.726 604.204 321.616C602.273 321.396 600.342 321.176 598.518 321.066V237.114L591.974 234.693L591.867 234.583H589.399V231.942H587.468V233.373H585.43V234.693L580.281 234.803V233.042L578.242 232.272L560.648 232.712V235.353L557.001 235.463V256.919H527.928V150.19H521.169V123.233H497.46V116.081H482.762V104.528H423.544V123.233H393.505V315.785H377.306V333.94H361.965V275.954H338.363V256.919L337.934 256.809V253.068L331.604 246.686H331.497V239.974L329.995 238.764V228.531H329.244V238.654L328.064 239.644V246.906L322.593 253.178V256.369L321.091 257.249V259.78L318.516 261.1V262.97L315.619 264.181V289.047L310.148 288.717H305.428V240.414H273.136V269.792H252.86V290.478H247.818V317.325H243.849V303.791H238.592V189.471H193.749C161.135 189.471 134.744 207.956 134.744 234.033V254.938H123.909C114.576 254.938 107.066 268.032 107.066 274.964V305.772H79.3876V270.232H60.7208V333.279H52.6748V298.18H48.169V270.232H31.5405V236.013H0V373H1920V127.414H1898.01ZM1603.95 246.686H1601.38L1601.16 246.576V245.146H1603.95V246.686ZM1603.95 243.055H1601.16V241.515H1603.95V243.055ZM1603.95 239.314H1601.16V237.774H1603.95V239.314ZM1603.95 235.573H1601.16V234.033H1603.95V235.573ZM1603.95 231.832H1601.16V230.292H1603.95V231.832ZM1603.95 228.201H1601.16V226.661H1603.95V228.201ZM1603.95 224.46H1601.16V222.92H1603.95V224.46Z" fill="url(#paint0_linear)"/>
<path d="M1920 371.318H0V638H1920V371.318Z" fill="#C0C2C7"/>
<path d="M819.498 531.609C790.939 537.363 762.53 543.924 733.971 549.577C691.384 557.955 648.191 562.547 605.503 570.118C567.205 576.931 529.109 586.672 494.343 604.488C476.632 613.572 459.779 624.676 444.995 638.05H721.81C722.416 637.697 722.971 637.343 723.576 637.041C755.365 619.023 791.191 610.09 827.067 604.74C866.273 598.835 905.984 596.614 945.292 591.265C984.094 586.016 1022.8 578.395 1059.63 564.919C1083.09 556.34 1105.8 545.388 1126.64 531.66H819.498V531.609Z" fill="url(#paint1_linear)"/>
<path d="M1862.78 371.318C1854.45 376.92 1845.83 382.371 1836.84 387.671C1800.01 409.877 1764.18 428.551 1724.32 442.682C1696.57 452.272 1669.83 462.366 1641.57 470.945C1531.07 503.751 1424.6 517.377 1310.56 542.612C1220.24 562.8 1137.49 585.511 1054.23 620.84C1041.62 626.038 1029.36 631.792 1017.35 638H1920V371.318H1862.78Z" fill="#ADAFB8"/>
<path d="M861.833 371.318C842.053 380.453 821.769 388.428 801.282 395.847C771.209 406.698 740.883 416.791 710.558 426.885C679.021 437.383 647.283 447.023 615.191 455.804C590.366 462.567 565.489 472.258 539.453 472.51C530.925 472.611 521.035 471.803 513.467 467.362C509.884 465.242 507.159 462.012 506.857 457.773C506.503 453.079 508.673 448.486 511.045 444.6C514.425 439.049 518.765 434.103 523.256 429.51C534.104 418.356 546.467 408.615 559.031 399.43C568.164 392.768 577.448 386.308 587.086 380.403C591.93 377.425 596.774 374.397 601.618 371.369H438.233C417.949 384.188 397.059 396.351 375.614 408.414C294.88 453.331 207.587 474.529 117.77 481.09C78.3117 484.118 39.61 484.925 0 488.307V638H135.128C148.853 627.149 163.587 617.408 179.33 608.223C233.825 575.417 287.816 551.192 347.862 532.518C378.137 522.929 405.384 512.835 436.669 505.769C478.549 496.18 518.412 493.152 559.788 490.124C573.916 489.114 588.044 488.105 602.173 488.105C666.255 487.6 729.833 486.591 793.916 489.114C845.888 491.133 897.356 491.133 949.328 488.61C963.961 488.105 978.594 485.582 993.732 483.058C1091.12 468.069 1190.37 430.822 1269.39 371.318H861.833Z" fill="#ADAFB8"/>
<path d="M1414.1 430.62H1920V400.793H1488.38L1412.99 422.697C1408.5 424.009 1409.41 430.62 1414.1 430.62Z" fill="#FAFDFF"/>
<path d="M748.452 445.004H0V547.154H425.467L749.562 452.877C754.053 451.615 753.145 445.004 748.452 445.004Z" fill="#FAFDFF"/>
<path d="M1865.3 349.868C1851.73 318.275 1850.72 281.886 1862.38 249.535C1862.83 248.324 1860.86 247.768 1860.41 248.98C1848.55 281.886 1849.76 318.779 1863.54 350.878C1864.09 352.039 1865.86 351.029 1865.3 349.868Z" fill="#1E272E"/>
<path d="M1818.78 331.094C1825.49 309.291 1824.78 285.57 1816.71 264.222C1816.26 263.01 1814.29 263.515 1814.74 264.777C1822.72 285.823 1823.42 309.089 1816.81 330.589C1816.46 331.8 1818.43 332.356 1818.78 331.094Z" fill="#1E272E"/>
<path d="M657.98 547.154H1920V445.004H980.966L656.87 539.281C652.379 540.543 653.338 547.154 657.98 547.154Z" fill="#FAFDFF"/>
<path d="M606.411 389.438L0 388.832V430.621H464.774L606.411 389.438Z" fill="#FAFDFF"/>
<path d="M1420.76 425.573H1920V400.793H1505.99L1420.76 425.573Z" fill="#419759"/>
<path d="M1884.38 400.793C1871.91 408.818 1813.48 417.095 1801.32 425.573H1920.05V400.793H1884.38Z" fill="#6EB96D"/>
<path d="M1920 451.11V540.997H675.54L984.649 451.11H1920Z" fill="#419759"/>
<path d="M1821.86 484.925C1794.36 492.597 1766.3 498.501 1737.89 499.915C1708.83 501.378 1680.02 497.24 1651.36 492.496C1623.3 487.852 1595.2 482.755 1566.79 482.351C1542.82 481.998 1519.01 485.48 1496.1 493C1465.92 502.892 1437.62 519.345 1413.35 541.047H1824.03C1852.74 522.172 1885.03 508.797 1920.1 500.217V454.29C1887.2 464.031 1854.81 475.74 1821.86 484.925Z" fill="#6EB96D"/>
<path d="M1104.94 451.11C1087.84 456.813 1070.83 462.971 1053.98 469.532C1012.2 485.833 969.007 503.145 923.443 502.993C898.516 502.892 874.599 497.088 850.984 489.972L675.54 540.997H1112.92C1146.82 524.847 1179.82 506.728 1215.75 495.423C1238.91 488.155 1262.68 484.37 1286.95 485.177C1312.33 486.035 1337.41 490.628 1362.74 492.495C1385.49 494.161 1407.9 492.748 1430 486.944C1449.98 481.695 1469.15 473.67 1487.97 465.191C1498.01 460.649 1508.06 455.855 1518.2 451.161H1104.94V451.11Z" fill="#6EB96D"/>
<path d="M733.769 451.11L424.659 540.997H0V451.11H733.769Z" fill="#419759"/>
<path d="M591.375 472.307C545.912 478.01 503.072 496.28 457.609 502.286C410.531 508.494 364.563 496.23 317.788 493.605C272.678 491.082 228.678 501.832 188.463 522.07C177.16 527.773 166.261 534.082 155.715 540.996H424.66L654.196 474.225C633.811 469.683 612.063 469.733 591.375 472.307Z" fill="#6EB96D"/>
<path d="M0 451.11V530.903C34.2614 531.105 66.4035 518.285 97.9401 506.324C115.399 499.662 133.009 493.202 151.224 488.963C170.601 484.42 190.431 482.2 210.261 480.484C247.146 477.203 283.93 474.225 320.311 466.705C339.637 462.718 358.811 457.621 377.43 451.11H0V451.11Z" fill="#6EB96D"/>
<path d="M589.003 389.387L0 388.832V425.574H464.471L589.003 389.387Z" fill="#419759"/>
<path d="M109.091 388.883C98.5959 395.747 88.0501 402.409 77.3529 408.919C70.1877 413.31 62.9217 417.6 55.6557 421.839C53.4859 423.101 51.2658 424.363 48.9951 425.574H238.719C250.729 421.587 263.141 417.751 275.857 414.118C308.151 404.932 342.261 396.756 376.825 388.933L109.091 388.883Z" fill="#6EB96D"/>
<path d="M411.793 532.62L407.908 533.73V502.035L397.665 505.013V536.708L393.779 537.868V502.035L407.908 497.947V470.744L411.692 464.536L411.793 532.62Z" fill="#1E272E"/>
<path d="M283.931 532.62L280.045 533.73V502.035L269.802 505.013V536.708L265.917 537.868V502.035L280.045 497.947V470.744L283.83 464.536L283.931 532.62Z" fill="#1E272E"/>
<path d="M393.779 504.256H265.917V509.353H393.779V504.256Z" fill="#FFDDC2"/>
<path d="M393.779 502.035H265.917L271.972 500.269H399.834L393.779 502.035Z" fill="#FFDDC2"/>
<path d="M401.852 499.714H273.99L280.045 497.947H407.907L401.852 499.714Z" fill="#FFDDC2"/>
<path d="M407.907 489.619H280.045V494.717H407.907V489.619Z" fill="#FFDDC2"/>
<path d="M407.907 480.989H280.045V486.087H407.907V480.989Z" fill="#FFDDC2"/>
<path d="M407.907 472.409H280.045V477.507H407.907V472.409Z" fill="#FFDDC2"/>
<path d="M407.907 470.744H280.045L283.83 464.536H411.692L407.907 470.744Z" fill="#FFDDC2"/>
<path d="M1167.36 532.62L1163.47 533.73V502.035L1153.23 505.013V536.708L1149.35 537.868V502.035L1163.52 497.947V470.744L1167.26 464.536L1167.36 532.62Z" fill="#1E272E"/>
<path d="M1039.5 532.62L1035.61 533.73V502.035L1025.37 505.013V536.708L1021.48 537.868V502.035L1035.66 497.947V470.744L1039.4 464.536L1039.5 532.62Z" fill="#1E272E"/>
<path d="M1149.35 502.035H1021.48L1027.59 500.269H1155.45L1149.35 502.035Z" fill="#FFDDC2"/>
<path d="M1157.42 499.714H1029.56L1035.66 497.947H1163.47L1157.42 499.714Z" fill="#FFDDC2"/>
<path d="M1163.47 470.744H1035.66L1039.4 464.536H1167.26L1163.47 470.744Z" fill="#FFDDC2"/>
<path d="M1163.52 472.409H1035.66V477.507H1163.52V472.409Z" fill="#FFDDC2"/>
<path d="M1163.52 480.989H1035.66V486.087H1163.52V480.989Z" fill="#FFDDC2"/>
<path d="M1163.52 489.619H1035.66V494.717H1163.52V489.619Z" fill="#FFDDC2"/>
<path d="M1149.35 504.256H1021.48V509.353H1149.35V504.256Z" fill="#FFDDC2"/>
<path d="M1748.59 415.682C1748.54 415.833 1748.49 415.985 1748.44 416.137C1748.44 415.985 1748.44 415.833 1748.44 415.682C1748.49 415.682 1748.54 415.682 1748.59 415.682Z" fill="url(#paint2_linear)"/>
<path d="M1829.73 298.188C1831.95 297.734 1834.47 296.926 1836.19 295.412C1838.06 293.746 1838.96 291.172 1839.11 288.75C1839.17 287.892 1837.8 287.892 1837.75 288.75C1837.6 291.122 1836.59 293.595 1834.57 294.907C1833.01 295.967 1831.14 296.522 1829.33 296.876C1828.52 297.027 1828.87 298.339 1829.73 298.188Z" fill="#1E272E"/>
<path d="M1838.46 289.356C1839.37 289.356 1840.23 289.356 1841.13 289.356C1841.99 289.356 1841.99 287.993 1841.13 287.993C1840.23 287.993 1839.37 287.993 1838.46 287.993C1837.55 287.993 1837.55 289.356 1838.46 289.356Z" fill="#1E272E"/>
<path d="M1830.23 302.882C1830.23 301.065 1830.23 299.298 1830.23 297.481C1830.23 296.623 1828.87 296.623 1828.87 297.481C1828.87 299.298 1828.87 301.065 1828.87 302.882C1828.87 303.79 1830.23 303.79 1830.23 302.882Z" fill="#1E272E"/>
<path d="M1833.97 306.364H1825.14L1821.3 312.168H1837.8L1833.97 306.364Z" fill="#1E272E"/>
<path d="M1832.86 307.575H1826.25V304.749C1826.25 302.932 1827.71 301.418 1829.58 301.418C1831.39 301.418 1832.91 302.882 1832.91 304.749V307.575H1832.86Z" fill="#1E272E"/>
<path d="M1821.3 312.168L1824.38 325.441H1834.67L1837.8 312.168H1821.3Z" fill="#A3BDFF"/>
<path d="M1828.87 311.108C1828.87 315.903 1828.87 320.647 1828.87 325.441C1828.87 326.299 1830.23 326.299 1830.23 325.441C1830.23 320.647 1830.23 315.903 1830.23 311.108C1830.23 310.2 1828.87 310.2 1828.87 311.108Z" fill="#1E272E"/>
<path d="M1834.67 325.441H1824.38V327.813H1834.67V325.441Z" fill="#1E272E"/>
<path d="M890.241 559.217L907.851 533.275C907.851 533.275 913.301 542.713 913.2 543.117C913.099 543.521 895.237 563.709 895.237 563.709L890.241 559.217Z" fill="#F79F77"/>
<path d="M949.732 569.26L941.709 531.711H951.044L956.392 569.26H949.732Z" fill="#F79F77"/>
<path d="M921.424 408.313C921.424 408.313 919.053 406.9 921.626 404.528C921.626 404.528 920.365 403.114 921.929 401.903C923.493 400.692 926.218 402.155 926.218 402.155C926.218 402.155 926.067 400.692 927.681 400.591C929.296 400.44 930.709 403.215 930.709 403.215C930.709 403.215 931.668 402.509 932.374 403.468C933.383 404.78 932.172 409.12 932.172 409.12L923.544 407.001L921.424 408.313Z" fill="#1E272E"/>
<path d="M924.906 419.416C924.906 419.416 915.521 422.394 912.392 428.854C908.053 437.787 898.567 456.057 896.094 463.224C893.622 470.441 897.457 473.62 902.957 473.469C908.457 473.318 916.833 448.537 916.833 448.537L924.906 419.416Z" fill="#1E272E"/>
<path d="M942.314 462.265L956.241 566.182H934.644L930.557 530.247L907.8 567.292L891.553 553.16L915.571 511.523C915.571 511.523 903.713 477.91 914.612 463.678L942.314 462.265Z" fill="#A3BDFF"/>
<path d="M956.393 569.261C956.393 569.261 957.604 570.674 960.783 572.339C963.961 574.005 966.333 573.803 967.594 575.115C968.856 576.427 968.503 577.588 968.503 577.588H950.186L949.682 569.261H956.393Z" fill="#1E272E"/>
<path d="M895.236 563.658C895.236 563.658 895.136 565.425 896.296 568.756C897.457 572.087 899.374 573.5 899.374 575.266C899.374 577.033 898.315 577.638 898.315 577.638L884.64 565.475L890.191 559.268L895.236 563.658Z" fill="#1E272E"/>
<path d="M928.287 418.659C933.534 417.852 942.264 416.136 946.099 419.871C949.933 423.606 960.984 436.223 960.732 445.661C960.479 455.099 953.163 457.673 945.291 454.695L944.635 462.265C944.635 462.265 934.342 468.372 912.19 464.486C912.19 464.486 913.553 430.419 916.782 425.473C920.062 420.527 923.897 419.366 928.287 418.659Z" fill="#1E272E"/>
<path d="M931.667 431.883C931.667 431.883 920.97 431.63 919.002 432.791C916.984 433.952 918.8 436.879 921.475 437.283C924.149 437.687 929.447 437.788 929.447 437.788C929.447 437.788 929.699 435.315 929.952 434.557C930.254 433.8 931.667 431.883 931.667 431.883Z" fill="#F79F77"/>
<path d="M945.392 454.695C941.255 452.575 936.612 450.355 933.282 447.024C931.314 445.055 930.658 442.582 931.365 439.907C932.071 437.233 933.837 435.062 935.502 432.943C935.755 432.64 935.351 432.236 935.099 432.539C932.071 436.274 928.488 441.522 931.819 446.166C933.181 448.083 935.351 449.497 937.319 450.809C939.842 452.424 942.466 453.837 945.089 455.2C945.443 455.351 945.745 454.846 945.392 454.695Z" fill="#5762B3"/>
<path d="M935.149 432.993C940.599 436.173 946.048 439.453 951.094 443.239C951.397 443.44 951.7 442.936 951.397 442.734C946.351 438.949 940.902 435.668 935.452 432.488C935.149 432.337 934.847 432.791 935.149 432.993Z" fill="#5762B3"/>
<path d="M943.475 437.282C943.626 435.011 943.676 432.74 943.676 430.418C943.676 430.065 943.122 430.065 943.122 430.418C943.122 432.689 943.021 434.961 942.92 437.282C942.87 437.636 943.475 437.636 943.475 437.282Z" fill="#5762B3"/>
<path d="M912.948 460.296C914.26 454.189 915.672 448.083 917.237 442.026C917.338 441.673 916.782 441.522 916.682 441.875C915.117 447.931 913.704 454.038 912.393 460.145C912.292 460.498 912.847 460.65 912.948 460.296Z" fill="#5762B3"/>
<path d="M935.755 417.7C934.947 419.719 933.434 421.738 931.668 422.848C930.507 423.605 928.791 424.261 927.429 424.11C926.42 423.958 925.512 423.353 924.856 422.545C924.351 421.94 923.998 420.728 923.746 419.769C925.209 419.214 926.723 418.911 928.287 418.659C930.406 418.356 933.03 417.902 935.755 417.7Z" fill="#F79F77"/>
<path d="M930.961 530.55C933.03 526.664 934.695 522.727 936.158 518.589C936.259 518.236 935.704 518.084 935.603 518.437C934.14 522.525 932.525 526.462 930.456 530.247C930.255 530.55 930.759 530.853 930.961 530.55Z" fill="#1E272E"/>
<path d="M936.108 518.589C937.117 515.561 937.218 512.381 937.017 509.202C936.815 505.871 936.411 502.539 935.957 499.208C934.897 492.244 933.383 485.43 931.819 478.566C931.718 478.213 931.163 478.364 931.264 478.718C932.727 485.228 934.241 491.789 935.25 498.401C935.755 501.782 936.209 505.113 936.411 508.545C936.613 511.876 936.663 515.258 935.553 518.488C935.452 518.791 936.007 518.942 936.108 518.589Z" fill="#1E272E"/>
<path d="M934.392 561.64C941.406 561.64 948.42 561.64 955.434 561.64C955.787 561.64 955.787 561.085 955.434 561.085C948.42 561.085 941.406 561.085 934.392 561.085C934.039 561.085 934.039 561.64 934.392 561.64Z" fill="#1E272E"/>
<path d="M894.227 548.77C899.727 553.161 905.177 557.501 910.677 561.892C910.98 562.144 911.383 561.74 911.081 561.488C905.581 557.097 900.131 552.757 894.631 548.366C894.379 548.114 893.925 548.517 894.227 548.77Z" fill="#1E272E"/>
<path d="M931.062 440.613C929.75 438.746 929.397 436.424 930.406 434.304C930.759 433.598 931.516 432.235 932.374 432.084C933.181 431.932 934.493 432.689 935.149 432.992C935.502 433.144 935.754 432.639 935.452 432.488C934.543 432.033 933.282 431.377 932.273 431.478C931.364 431.579 930.658 432.639 930.204 433.396C928.741 435.768 928.993 438.645 930.557 440.865C930.759 441.219 931.264 440.916 931.062 440.613Z" fill="#5762B3"/>
<path d="M928.438 402.812C925.461 402.105 922.383 404.225 921.627 407.556L920.516 412.3C919.911 414.924 921.273 417.498 923.645 418.104C926.925 418.861 930.255 416.539 931.163 412.905L932.021 409.322C932.626 406.344 931.062 403.468 928.438 402.812Z" fill="#F79F77"/>
<path d="M932.071 408.768L932.98 418.609L925.764 419.669V413.764L932.071 408.768Z" fill="#F79F77"/>
<path d="M932.172 408.767C932.576 405.992 930.961 403.165 928.438 402.56C925.461 401.853 922.333 403.72 921.525 407.051L921.374 408.313C922.635 409.121 924.301 408.919 925.461 408.566C925.461 408.919 925.613 409.524 925.865 409.878C926.571 410.786 927.631 410.433 928.539 410.08C929.397 411.644 930.759 412.855 932.425 413.411L932.172 408.767Z" fill="#1E272E"/>
<path d="M930.305 411.29C930.305 412.199 929.548 412.956 928.64 412.956C927.732 412.956 926.975 412.199 926.975 411.29C926.975 410.382 927.732 409.625 928.64 409.625C929.548 409.625 930.305 410.382 930.305 411.29Z" fill="#F79F77"/>
<path d="M895.589 419.821C894.025 416.237 889.837 414.067 886.052 415.177C882.319 416.237 879.947 420.224 880.452 424.01C877.424 423.101 873.387 424.615 871.974 427.391C870.057 431.025 870.36 435.012 873.589 438.797C873.387 438.999 874.346 439.302 874.296 439.05C876.314 437.99 877.979 436.476 879.644 434.962C881.663 433.195 883.782 431.631 886.002 430.167C888.222 428.653 892.057 428.855 894.126 427.088C895.741 425.726 896.144 423 895.942 420.729C895.942 420.78 895.64 420.022 895.589 419.821Z" fill="#85442F"/>
<path d="M889.383 410.483C889.03 409.222 886.809 400.541 883.429 403.822C882.318 404.881 883.479 407.354 884.236 408.465C885.346 410.08 887.062 410.938 888.979 411.089C889.181 411.089 889.282 410.988 889.282 410.837C889.332 410.736 889.433 410.635 889.383 410.483Z" fill="#85442F"/>
<path d="M870.411 438.293L880.855 442.583L877.071 465.748L905.277 458.985C905.277 458.985 904.319 442.986 901.997 435.113C899.676 427.189 896.397 424.414 891.704 423.656C886.961 422.899 882.672 424.212 878.484 427.997C874.296 431.782 870.411 438.293 870.411 438.293Z" fill="#FFFDFC"/>
<path d="M907.044 470.29C907.044 470.29 912.241 521.163 914.562 573.4H907.851L889.131 513.341C889.131 513.341 878.736 539.686 860.924 567.999L854.769 565.425L867.888 515.359L907.044 470.29Z" fill="#F79F77"/>
<path d="M867.333 557.451C865.314 560.883 863.195 564.466 860.975 567.999L854.819 565.425L857.695 554.423L867.333 557.451Z" fill="#FFFDFC"/>
<path d="M914.562 573.399H907.851L904.369 562.145L913.956 560.883C914.158 565.072 914.36 569.21 914.562 573.399Z" fill="#FFFDFC"/>
<path d="M900.03 448.537L915.066 477.658C915.066 477.658 922.484 482.453 922.686 484.421C922.887 486.389 917.387 490.931 910.021 482.705C901.796 473.469 888.475 456.007 888.475 456.007L900.03 448.537Z" fill="#F79F77"/>
<path d="M912.241 528.835C905.833 530.399 899.677 531.207 893.975 531.51C889.888 531.762 886.053 531.712 882.47 531.56C874.548 531.156 868.09 529.996 863.851 529.037L868.846 503.348L907.044 470.29C907.044 470.29 909.819 495.626 912.241 528.835Z" fill="#1E272E"/>
<path d="M895.64 477.356L891.604 502.187L901.241 499.815L908.003 479.627L907.044 470.29L895.64 477.356Z" fill="#C76240"/>
<path d="M892.713 497.543C896.094 496.786 899.374 495.827 902.755 495.02C903.108 494.919 902.956 494.363 902.603 494.464C899.222 495.221 895.943 496.231 892.562 496.988C892.209 497.038 892.36 497.594 892.713 497.543Z" fill="#1E272E"/>
<path d="M875.608 456.613L868.847 503.398C868.847 503.398 893.773 490.175 907.044 470.34L904.521 449.547L875.608 456.613Z" fill="#C76240"/>
<path d="M894.782 485.077C899.172 480.888 903.36 476.598 906.993 471.703C907.195 471.4 906.69 471.097 906.488 471.4C902.906 476.245 898.667 480.484 894.378 484.623C894.126 484.926 894.53 485.38 894.782 485.077Z" fill="#1E272E"/>
<path d="M886.002 481.141C893.066 477.103 899.979 472.712 906.639 468.069C906.942 467.867 906.639 467.362 906.337 467.564C899.626 472.208 892.763 476.598 885.699 480.636C885.396 480.787 885.699 481.292 886.002 481.141Z" fill="#1E272E"/>
<path d="M894.277 471.502L877.525 463.931C876.667 463.527 876.264 462.518 876.667 461.66L888.02 436.526C888.424 435.668 889.433 435.264 890.291 435.668L907.043 443.239C907.901 443.642 908.305 444.652 907.901 445.51L896.548 470.644C896.144 471.502 895.135 471.905 894.277 471.502Z" fill="#FFBF52"/>
<path d="M874.144 439.807C874.144 439.807 869.3 447.781 868.089 454.897C866.928 461.811 867.988 465.899 875.506 465.798C883.025 465.697 901.795 459.994 905.277 459.035C908.759 458.077 908.557 452.323 904.672 452.071C896.951 451.566 881.057 451.869 881.057 451.869L884.488 444.147L874.144 439.807Z" fill="#F79F77"/>
<path d="M914.562 573.399C914.562 573.399 915.773 574.813 918.952 576.478C922.13 578.194 924.502 577.942 925.763 579.254C927.025 580.566 926.672 581.727 926.672 581.727H908.355L907.851 573.399H914.562Z" fill="#1E272E"/>
<path d="M860.924 568.05C860.924 568.05 861.378 569.766 863.599 572.542C865.768 575.317 868.089 576.024 868.645 577.689C869.25 579.355 868.392 580.263 868.392 580.263L851.539 573.198L854.768 565.526L860.924 568.05Z" fill="#1E272E"/>
<path d="M890.645 407.556C893.622 406.849 896.7 408.969 897.456 412.3L898.567 417.044C899.172 419.669 897.81 422.242 895.438 422.848C892.158 423.605 888.828 421.284 887.92 417.65L887.062 414.066C886.457 411.089 888.021 408.212 890.645 407.556Z" fill="#F79F77"/>
<path d="M887.717 417.448L886.456 424.161L893.217 424.009L893.318 418.458L887.717 417.448Z" fill="#F79F77"/>
<path d="M891.855 427.492C889.786 427.34 887.112 425.069 885.851 423.858C887.768 423.403 889.685 423.303 891.704 423.656C892.208 423.757 892.713 423.858 893.218 424.009C893.268 424.161 894.63 427.693 891.855 427.492Z" fill="#F79F77"/>
<path d="M890.644 407.557C888.02 408.162 886.254 411.09 886.961 414.067L887.617 417.146L887.364 419.215C892.259 418.509 895.488 415.531 897.355 411.897C896.397 408.768 893.52 406.901 890.644 407.557Z" fill="#85442F"/>
<path d="M885.85 423.857C885.85 423.857 892.763 424.614 890.644 418.306C888.575 411.997 882.672 416.943 885.85 423.857Z" fill="#85442F"/>
<path d="M893.773 417.448C893.773 418.356 893.016 419.113 892.107 419.113C891.199 419.113 890.442 418.356 890.442 417.448C890.442 416.539 891.199 415.782 892.107 415.782C893.016 415.782 893.773 416.489 893.773 417.448Z" fill="#F79F77"/>
<path d="M1476.27 511.22C1476.27 511.22 1478.03 510.867 1480.96 508.999C1483.89 507.132 1484.84 505.012 1486.56 504.608C1488.28 504.154 1489.08 505.012 1489.08 505.012L1480.35 520.405L1473.09 516.872L1476.27 511.22Z" fill="#1E272E"/>
<path d="M1476.27 511.221L1432.97 491.891L1430.5 501.53L1473.09 516.873L1476.27 511.221Z" fill="#F79F77"/>
<path d="M1378.73 496.938C1378.73 496.938 1377.22 512.23 1391.4 513.744C1405.57 515.258 1425.91 506.123 1425.91 506.123L1464.66 520.456L1472.48 502.943L1463.9 499.108C1463.9 499.108 1447.56 473.267 1443.42 466.959C1439.38 460.902 1429.79 458.126 1421.42 467.261C1413.04 476.396 1400.07 491.537 1400.07 491.537L1378.73 496.938Z" fill="#FFFDFC"/>
<path d="M1377.62 484.068C1377.62 484.068 1374.9 494.818 1366.67 510.918C1365.36 513.492 1352.44 512.684 1352.39 511.473C1352.34 509.909 1354.66 509.505 1359.46 508.596L1370 478.012L1377.62 484.068Z" fill="#F79F77"/>
<path d="M1409.71 455.351C1409.71 455.351 1412.03 452.525 1414.61 455.099C1416.37 456.865 1407.74 475.287 1404.62 480.939C1401.79 485.986 1393.82 483.816 1390.13 481.292C1386.45 478.769 1391.85 467.514 1391.85 467.514L1398.21 473.873L1409.71 455.351Z" fill="#F79F77"/>
<path d="M1400.07 491.486C1400.07 491.486 1394.83 470.39 1391.7 464.737C1388.22 458.429 1381.81 458.883 1378.68 461.356C1375.8 463.577 1368.89 477.102 1368.89 477.102L1377.01 483.613L1378.13 497.543L1400.07 491.486Z" fill="#C9D8FF"/>
<path d="M1408.05 492.799C1414.86 490.377 1421.87 488.206 1428.99 487.147C1432.12 486.642 1435.34 486.389 1438.42 487.247C1442.51 488.358 1446.29 490.225 1450.08 492.042C1454.62 494.263 1459.16 496.584 1463.6 499.007C1463.9 499.158 1464.21 498.704 1463.9 498.502C1459.82 496.231 1455.68 494.111 1451.54 492.093C1447.81 490.225 1444.02 488.408 1440.04 487.096C1433.38 484.926 1426.16 486.844 1419.6 488.56C1415.67 489.62 1411.78 490.831 1407.9 492.193C1407.54 492.345 1407.69 492.9 1408.05 492.799Z" fill="#1E272E"/>
<path d="M1430.8 479.071C1431.36 481.544 1432.01 483.967 1432.77 486.339C1432.87 486.692 1433.43 486.541 1433.33 486.187C1432.52 483.815 1431.86 481.393 1431.36 478.92C1431.26 478.567 1430.7 478.718 1430.8 479.071Z" fill="#1E272E"/>
<path d="M1384.94 473.317C1383.57 477.658 1382.11 481.998 1380.45 486.238C1380.29 486.591 1380.85 486.742 1381 486.389C1382.67 482.15 1384.13 477.86 1385.49 473.469C1385.54 473.115 1385.04 472.964 1384.94 473.317Z" fill="#1E272E"/>
<path d="M1376.86 484.017C1378.07 484.875 1379.34 485.683 1380.55 486.541C1380.85 486.743 1381.1 486.238 1380.85 486.036C1379.64 485.178 1378.38 484.371 1377.17 483.513C1376.86 483.311 1376.56 483.815 1376.86 484.017Z" fill="#1E272E"/>
<path d="M1404.62 453.483L1418.44 458.581L1411.18 475.993L1397.45 470.29L1404.62 453.483Z" fill="#1E272E"/>
<path d="M1383.83 446.165C1386.5 445.559 1389.23 447.426 1389.93 450.404L1390.94 454.593C1391.5 456.915 1390.24 459.236 1388.17 459.741C1385.24 460.448 1382.26 458.378 1381.51 455.098L1380.75 451.918C1380.04 449.294 1381.46 446.72 1383.83 446.165Z" fill="#F79F77"/>
<path d="M1381.2 454.946L1380.19 460.447C1380.19 460.447 1382.52 461.507 1383.37 461.659C1385.49 462.113 1386.15 461.457 1386.15 461.457L1386.25 455.855L1381.2 454.946Z" fill="#F79F77"/>
<path d="M1383.83 446.165C1381.46 446.72 1379.94 449.294 1380.55 451.919L1381.15 454.644L1381.1 455.351C1384.73 455.3 1388.12 453.18 1389.78 449.95C1388.92 447.225 1386.35 445.56 1383.83 446.165Z" fill="#1E272E"/>
<path d="M1380.09 446.569C1379.34 446.115 1378.43 445.862 1377.57 446.115C1377.17 446.216 1376.76 446.518 1376.66 446.922C1376.61 447.174 1376.61 447.427 1376.71 447.679C1376.91 448.234 1377.42 448.588 1377.97 448.84C1379.39 449.546 1381.1 449.597 1382.57 448.941C1381.91 448.032 1380.8 447.023 1380.09 446.569Z" fill="#1E272E"/>
<path d="M1381.76 449.547L1385.19 456.158C1385.74 457.471 1385.34 458.985 1384.79 459.742C1384.23 460.499 1383.37 460.902 1382.51 461.205C1381 461.71 1379.34 461.861 1377.82 461.306C1376.31 460.751 1374.54 459.439 1374.59 457.672C1374.59 456.865 1375 456.259 1375.4 455.906C1376.71 454.644 1378.53 454.392 1379.69 453.029C1380.6 452.02 1381 450.657 1381.76 449.547Z" fill="#1E272E"/>
<path d="M1387.16 454.644C1387.16 455.451 1386.5 456.158 1385.64 456.158C1384.79 456.158 1384.13 455.502 1384.13 454.644C1384.13 453.836 1384.79 453.13 1385.64 453.13C1386.5 453.13 1387.16 453.836 1387.16 454.644Z" fill="#F79F77"/>
<path d="M1404.11 454.644L1416.02 459.085L1409.76 474.024L1397.96 469.128L1404.11 454.644Z" fill="#FFFDFC"/>
<path d="M1409.71 455.351C1409.71 455.351 1408.05 457.016 1410.07 457.925C1412.69 459.136 1414.25 456.41 1414.25 456.41L1409.71 455.351Z" fill="#F79F77"/>
<path d="M1514.11 497.543C1514.11 497.543 1519.56 509.403 1517.49 512.129C1515.42 514.854 1511.03 507.99 1509.37 501.681C1508.26 497.543 1510.12 495.625 1510.12 495.625L1514.11 497.543Z" fill="#FFFDFC"/>
<path d="M1512.14 498.602L1520.47 509.857C1520.47 509.857 1558.62 504.204 1568.45 496.735C1578.29 489.265 1570.68 480.938 1565.73 478.566C1560.79 476.194 1535.4 480.181 1535.4 480.181L1515.37 478.969C1515.37 478.969 1502.51 463.425 1495.14 459.084C1489.64 455.854 1475.96 458.176 1482.62 475.083C1489.29 491.991 1504.32 500.823 1504.32 500.823L1512.14 498.602Z" fill="#1E272E"/>
<path d="M1553.97 452.07C1551 449.445 1545.95 445.256 1537.12 444.903C1528.29 444.55 1521.53 446.316 1517.74 451.363C1513.96 456.41 1508.51 472.308 1508.51 472.308L1514.31 480.131L1547.06 478.768L1552.01 478.263L1551.8 476.446C1558.62 475.336 1564.12 474.377 1564.12 469.33C1564.01 463.274 1556.95 454.694 1553.97 452.07Z" fill="#FFBF52"/>
<path d="M1522.79 458.933C1522.23 460.851 1521.68 462.82 1521.12 464.737C1521.02 465.091 1521.58 465.242 1521.68 464.889C1522.23 462.971 1522.79 461.003 1523.34 459.085C1523.45 458.732 1522.89 458.58 1522.79 458.933Z" fill="#1E272E"/>
<path d="M1535.51 485.178H1508.96L1520.47 478.769H1547.01L1535.51 485.178Z" fill="#FFFDFC"/>
<path d="M1540.95 470.693C1540.95 470.693 1532.98 474.579 1532.48 477.355C1532.17 478.97 1532.73 480.283 1535.51 480.182C1538.28 480.081 1544.94 476.649 1544.94 476.649L1540.95 470.693Z" fill="#F79F77"/>
<path d="M1535.51 485.178H1508.96L1506.74 462.567H1533.28L1535.51 485.178Z" fill="#FFFDFC"/>
<path d="M1541.46 470.794C1545.19 469.028 1548.98 467.312 1552.71 465.545C1553.01 465.394 1552.76 464.889 1552.41 465.041C1548.67 466.807 1544.89 468.523 1541.16 470.289C1540.85 470.441 1541.16 470.946 1541.46 470.794Z" fill="#1E272E"/>
<path d="M1546.3 461.508C1547.01 463.476 1547.87 465.343 1548.88 467.11C1549.08 467.413 1549.53 467.16 1549.38 466.807C1548.37 465.041 1547.57 463.224 1546.86 461.306C1546.71 461.003 1546.15 461.155 1546.3 461.508Z" fill="#1E272E"/>
<path d="M1512.14 498.653C1512.14 498.653 1499.48 495.625 1497.21 498.149C1494.94 500.672 1502.51 503.7 1509.01 504.104C1513.3 504.407 1514.82 502.186 1514.82 502.186L1512.14 498.653Z" fill="#FFFDFC"/>
<path d="M1537.37 438.19L1537.12 445.912C1537.12 445.912 1535.71 447.477 1532.43 447.174C1528.54 446.821 1530.81 442.178 1530.81 442.178L1537.37 438.19Z" fill="#F79F77"/>
<path d="M1534.5 431.378C1531.82 430.772 1529.1 432.639 1528.39 435.617L1527.38 439.806C1526.83 442.128 1528.09 444.449 1530.16 444.954C1533.08 445.66 1536.06 443.591 1536.82 440.311L1537.57 437.131C1538.23 434.557 1536.82 431.983 1534.5 431.378Z" fill="#F79F77"/>
<path d="M1534.5 431.377C1531.82 430.721 1529.1 432.639 1528.39 435.616L1528.34 435.768C1528.69 436.172 1529.2 436.474 1529.8 436.626C1531.17 436.929 1531.47 436.676 1532.83 436.272C1533.64 436.02 1534.24 436.626 1534.04 437.231C1533.99 437.433 1533.79 438.089 1533.79 438.392C1533.89 440.26 1535.56 441.269 1537.22 442.026L1537.37 438.19L1537.62 437.181C1538.23 434.556 1536.82 431.932 1534.5 431.377Z" fill="#1E272E"/>
<path d="M1535.91 439.402C1535.91 440.209 1535.25 440.916 1534.4 440.916C1533.54 440.916 1532.88 440.26 1532.88 439.402C1532.88 438.544 1533.54 437.888 1534.4 437.888C1535.25 437.888 1535.91 438.594 1535.91 439.402Z" fill="#F79F77"/>
<path d="M1531.57 434.354C1531.57 435.414 1530.71 436.272 1529.65 436.272C1528.59 436.272 1527.73 435.414 1527.73 434.354C1527.73 433.295 1528.59 432.437 1529.65 432.437C1530.71 432.437 1531.57 433.295 1531.57 434.354Z" fill="#1E272E"/>
<path d="M1531.57 434.708C1532.63 434.708 1533.49 433.849 1533.49 432.79C1533.49 431.731 1532.63 430.872 1531.57 430.872C1530.51 430.872 1529.65 431.731 1529.65 432.79C1529.65 433.849 1530.51 434.708 1531.57 434.708Z" fill="#1E272E"/>
<path d="M1536.01 432.538C1536.01 433.598 1535.15 434.456 1534.09 434.456C1533.03 434.456 1532.18 433.598 1532.18 432.538C1532.18 431.478 1533.03 430.62 1534.09 430.62C1535.1 430.62 1536.01 431.478 1536.01 432.538Z" fill="#1E272E"/>
<path d="M1537.98 433.698C1537.98 434.758 1537.12 435.616 1536.06 435.616C1535 435.616 1534.14 434.758 1534.14 433.698C1534.14 432.638 1535 431.78 1536.06 431.78C1537.12 431.78 1537.98 432.638 1537.98 433.698Z" fill="#1E272E"/>
<path d="M1536.72 438.342C1537.78 438.342 1538.63 437.483 1538.63 436.424C1538.63 435.364 1537.78 434.506 1536.72 434.506C1535.66 434.506 1534.8 435.364 1534.8 436.424C1534.8 437.483 1535.66 438.342 1536.72 438.342Z" fill="#1E272E"/>
<path d="M1329.7 402.353C1329.7 402.353 1331.66 415.071 1332.88 417.746C1334.04 420.421 1339.94 434.552 1342.77 435.612C1344.13 436.117 1346.45 436.167 1347.1 435.309C1348.11 433.997 1337.77 399.526 1337.77 399.526L1329.7 402.353Z" fill="#1E272E"/>
<path d="M1329.04 392.41L1338.78 391.502C1338.78 391.502 1340.34 396.246 1338.78 400.738C1337.22 405.23 1331.31 416.686 1331.31 416.686C1331.31 416.686 1329.9 432.837 1328.03 435.057C1326.16 437.278 1322.33 435.713 1322.33 435.713C1322.33 435.713 1322.13 418.856 1322.68 413.91C1323.24 408.864 1329.04 392.41 1329.04 392.41Z" fill="#1E272E"/>
<path d="M1322.38 435.663C1322.38 435.663 1321.83 436.37 1320.26 437.177C1318.7 437.985 1317.54 437.884 1316.93 438.54C1316.33 439.196 1316.48 439.751 1316.48 439.751H1325.41L1325.66 435.663H1322.38Z" fill="#1E272E"/>
<path d="M1856.32 393.071C1858.09 363.647 1869.34 334.93 1887.86 312.017C1893.06 305.557 1898.86 299.601 1905.17 294.15C1906.12 293.292 1904.71 291.879 1903.75 292.737C1881.15 312.37 1865 339.119 1858.04 368.24C1856.07 376.416 1854.86 384.744 1854.35 393.122C1854.2 394.333 1856.22 394.333 1856.32 393.071Z" fill="#1E272E"/>
<path d="M1870.5 340.078C1891.84 332.003 1909.1 315.096 1917.68 293.999C1918.18 292.788 1916.22 292.283 1915.71 293.444C1907.39 313.834 1890.53 330.337 1869.95 338.11C1868.78 338.564 1869.29 340.532 1870.5 340.078Z" fill="#1E272E"/>
<path d="M1782.15 261.699C1804.65 285.016 1817.72 316.812 1818.63 349.213C1818.88 358.348 1818.18 367.433 1816.46 376.416C1816.21 377.678 1818.18 378.233 1818.43 376.972C1824.53 344.57 1817.92 310.301 1800.62 282.291C1795.72 274.367 1790.02 267.049 1783.56 260.336C1782.7 259.327 1781.24 260.791 1782.15 261.699Z" fill="#1E272E"/>
<path d="M1771.05 272.853C1779.83 285.672 1790.88 300.51 1808.08 300.207C1809.4 300.207 1809.4 298.188 1808.08 298.188C1791.63 298.491 1781.14 284.006 1772.76 271.843C1772.06 270.783 1770.29 271.793 1771.05 272.853Z" fill="#1E272E"/>
<path d="M1732.65 278.303C1753.94 297.128 1766 325.29 1764.89 353.705C1764.84 355.017 1766.86 355.017 1766.91 353.705C1768.02 324.786 1755.76 296.018 1734.06 276.84C1733.1 275.982 1731.69 277.445 1732.65 278.303Z" fill="#1E272E"/>
<path d="M1720.99 286.882C1722.56 291.727 1725.18 296.017 1728.21 300.105C1731.18 304.143 1734.26 308.18 1737.64 311.915C1744 318.981 1752.33 324.936 1762.22 324.583C1763.53 324.533 1763.53 322.514 1762.22 322.564C1752.48 322.918 1744.56 316.811 1738.45 309.846C1732.45 302.982 1725.68 295.159 1722.91 286.378C1722.56 285.065 1720.59 285.621 1720.99 286.882Z" fill="#1E272E"/>
<path d="M1892.4 83.4902C1844.31 83.4902 1804.35 118.516 1796.63 164.444C1791.78 164.595 1787.34 166.311 1783.71 169.087C1777.91 166.008 1771.3 164.292 1764.28 164.292C1741.33 164.292 1722.71 182.915 1722.71 205.879C1722.71 206.434 1722.71 206.939 1722.76 207.444C1719.93 206.939 1717.01 206.636 1713.98 206.636C1687.08 206.636 1665.29 228.439 1665.29 255.339C1665.29 282.24 1687.08 304.042 1713.98 304.042C1733.66 304.042 1750.56 292.384 1758.28 275.578C1763.43 280.221 1770.24 283.047 1777.71 283.047C1790.07 283.047 1800.56 275.325 1804.75 264.424C1813.08 269.572 1822.87 272.499 1833.31 272.499C1839.97 272.499 1846.38 271.288 1852.28 269.118C1861.62 273.357 1871.76 276.133 1882.36 277.243C1891.95 290.92 1904.86 302.175 1919.9 309.746V87.4269C1911.27 84.8529 1901.99 83.4902 1892.4 83.4902Z" fill="#55B06F"/>
<path d="M1920 151.826V177.061C1906.28 184.177 1898.35 194.927 1898.35 194.927C1898.35 194.927 1875.04 185.388 1848.6 214.711C1848.6 214.711 1856.17 189.527 1883.32 187.256C1883.32 187.256 1891.89 162.172 1920 151.826Z" fill="#4A985B"/>
<path d="M1920 283.703V309.695C1904.96 302.124 1892.05 290.869 1882.46 277.192C1871.81 276.082 1861.72 273.306 1852.39 269.067C1846.48 271.287 1840.07 272.499 1833.36 272.499C1822.87 272.499 1813.08 269.521 1804.8 264.423C1804.05 266.341 1803.14 268.209 1801.98 269.874C1803.39 267.25 1804.45 264.474 1805.06 261.547C1815.15 265.887 1826.55 267.603 1838.26 265.887C1845.73 264.777 1852.64 262.405 1858.89 258.973C1870 262.152 1881.75 263.616 1893.76 263.061C1901.48 271.186 1910.31 278.151 1920 283.703Z" fill="#4A985B"/>
<path d="M1822.36 371.117C1811.11 371.117 1800.36 373.489 1790.67 377.779C1789.11 356.178 1771.1 339.119 1749.1 339.119C1734.62 339.119 1721.85 346.488 1714.38 357.742C1701.72 348.961 1686.28 343.813 1669.67 343.813C1631.33 343.813 1599.39 371.268 1592.42 407.606H1888.67C1874.79 385.652 1850.27 371.117 1822.36 371.117Z" fill="#55B06F"/>
<path d="M1822.36 371.117C1811.11 371.117 1800.36 373.489 1790.67 377.779C1789.11 356.178 1771.1 339.119 1749.1 339.119C1748.19 339.119 1747.28 339.17 1746.37 339.22C1769.43 342.4 1786.23 362.487 1785.58 385.551C1796.58 381.968 1808.44 380.605 1820.7 381.817C1841.69 383.936 1855.26 393.071 1865.25 407.556H1888.72C1874.79 385.652 1850.27 371.117 1822.36 371.117Z" fill="#4A985B"/>
<path d="M1343.22 435.663C1343.22 435.663 1342.72 436.37 1341.25 437.177C1339.79 437.985 1338.63 437.884 1338.07 438.54C1337.52 439.196 1337.77 439.751 1337.77 439.751H1346.7L1346.55 435.663H1343.22Z" fill="#1E272E"/>
<path d="M1329.04 392.411C1329.04 392.411 1329.49 380.45 1330.66 377.421C1331.82 374.393 1335.05 374.393 1336.16 375.604C1337.87 377.472 1338.78 391.503 1338.78 391.503L1329.04 392.411Z" fill="#FFFDFC"/>
<path d="M1330.91 380.701L1333.53 388.574L1330.4 396.599C1330.4 396.599 1332.37 399.577 1334.19 398.416C1336 397.305 1339.49 391.956 1340.14 388.776C1340.85 385.596 1336.86 376.26 1335.35 376.159C1333.89 376.108 1330.86 377.37 1330.91 380.701Z" fill="#FFFDFC"/>
<path d="M1332.47 367.933C1331.06 367.731 1329.75 368.791 1329.5 370.406L1329.14 372.626C1328.94 373.888 1329.7 374.998 1330.81 375.2C1332.37 375.453 1333.83 374.241 1334.09 372.525L1334.34 370.86C1334.59 369.396 1333.73 368.135 1332.47 367.933Z" fill="#F79F77"/>
<path d="M1334.24 372.374L1334.89 374.897L1331.92 375.604L1331.67 373.081L1334.24 372.374Z" fill="#F79F77"/>
<path d="M1329.55 370.153C1330.56 371.768 1333.03 372.727 1334.34 372.879L1334.24 372.222L1334.44 370.759C1334.64 369.346 1333.73 368.084 1332.47 367.882C1331.16 367.73 1329.9 368.689 1329.55 370.153Z" fill="#1E272E"/>
<path d="M1332.47 372.222C1332.47 372.222 1331.51 375.553 1333.58 375.755C1335.65 375.957 1336.91 374.847 1336.46 373.837C1336 372.828 1334.44 371.062 1334.44 371.062L1332.47 372.222Z" fill="#1E272E"/>
<path d="M599.095 405.335C599.095 406.092 599.044 406.798 598.893 407.505H539.856C542.329 401.953 547.879 398.067 554.338 398.067C556.558 398.067 558.677 398.521 560.595 399.329C560.595 399.127 560.595 398.925 560.595 398.723C560.595 392.415 565.691 387.267 572.049 387.267C576.237 387.267 579.87 389.487 581.838 392.818C583.15 392.364 584.563 392.162 585.976 392.162C593.242 392.213 599.095 398.067 599.095 405.335Z" fill="#55B06F"/>
<path d="M599.095 405.334C599.095 406.091 599.045 406.798 598.893 407.505H594.251C593.343 402.609 590.315 398.37 584.412 396.452C582.746 395.897 581.031 395.644 579.366 395.644C578.659 392.414 576.742 389.487 574.017 387.519C577.297 388.124 580.123 390.143 581.788 392.919C583.1 392.465 584.513 392.263 585.925 392.263C593.242 392.212 599.095 398.067 599.095 405.334Z" fill="#4A985B"/>
<path d="M1331.01 372.425C1331.06 372.879 1331.41 373.182 1331.87 373.132C1332.32 373.081 1332.62 372.728 1332.57 372.273C1332.52 371.819 1332.17 371.516 1331.71 371.566C1331.26 371.617 1330.96 372.021 1331.01 372.425Z" fill="#F79F77"/>
<path d="M1332.42 415.071C1334.69 410.882 1336.96 406.744 1338.58 402.252C1338.68 401.899 1338.17 401.747 1338.02 402.101C1336.41 406.542 1334.14 410.63 1331.92 414.768C1331.77 415.122 1332.27 415.424 1332.42 415.071Z" fill="#5762B3"/>
<path d="M1790.17 245.58C1790.17 245.58 1771.71 249.944 1770.71 254.644C1769.7 259.344 1774.74 265.387 1782.45 263.708C1790.17 262.03 1798.56 252.63 1798.56 252.63L1790.17 245.58Z" fill="#F79F77"/>
<path d="M1894.55 233.493C1894.55 233.493 1905.29 249.271 1902.61 253.299C1899.92 257.327 1892.54 258.67 1887.84 251.956C1883.14 245.578 1883.48 232.822 1883.48 232.822L1894.55 233.493Z" fill="#F79F77"/>
<path d="M1841.52 281.164C1841.52 281.164 1841.52 324.469 1848.9 367.774C1854.27 399.666 1866.02 435.921 1874.41 455.056C1878.44 463.784 1907.3 455.727 1907.3 449.685C1907.3 443.642 1887.5 360.725 1884.82 350.654C1882.13 340.583 1878.44 258.337 1878.44 258.337L1841.52 281.164Z" fill="#1E272E"/>
<path d="M1825.08 236.514C1825.08 236.514 1798.57 312.382 1793.87 328.831C1789.17 345.616 1805.28 440.283 1809.64 449.347C1811.99 454.382 1817.36 455.725 1827.09 455.725C1836.83 455.725 1843.2 450.018 1843.2 450.018L1833.14 349.644C1833.14 349.644 1870.73 302.983 1877.44 273.105C1884.15 243.228 1868.71 227.786 1868.71 227.786L1825.08 236.514Z" fill="#1E272E"/>
<path d="M1887.16 172.735C1881.8 163.671 1858.64 137.487 1857.3 135.808C1848.57 126.408 1825.08 138.829 1819.37 154.607C1813.66 170.385 1812.32 199.591 1812.32 199.591C1812.32 199.591 1788.83 235.846 1789.16 244.239C1789.5 252.967 1800.24 258.674 1803.93 258.674C1807.62 258.674 1825.08 236.518 1825.08 236.518L1868.71 227.79C1868.71 227.79 1870.72 221.411 1870.72 212.683C1874.41 224.097 1877.77 234.168 1878.77 235.511C1881.12 238.532 1895.22 239.875 1898.58 236.182C1901.6 232.489 1895.22 186.163 1887.16 172.735Z" fill="#D96A57"/>
<path d="M1835.82 95.5301C1828.44 94.523 1821.39 100.23 1820.05 108.622L1818.37 120.372C1817.36 127.086 1821.39 133.128 1827.1 134.135C1835.15 135.478 1843.21 129.1 1844.55 119.7L1845.89 110.636C1846.9 103.251 1842.2 96.5372 1835.82 95.5301Z" fill="#F79F77"/>
<path d="M1844.88 119.354L1848.58 132.447L1832.8 138.489L1831.46 123.047L1844.88 119.354Z" fill="#F79F77"/>
<path d="M1820.05 107.272C1825.42 116 1838.51 121.035 1845.55 121.707L1844.88 118.35L1845.89 110.629C1846.9 103.243 1842.2 96.5295 1835.49 95.5224C1828.44 94.5153 1821.72 99.5508 1820.05 107.272Z" fill="#1E272E"/>
<path d="M1321.71 407.506H1211.36C1211.81 400.945 1217.26 395.746 1223.92 395.746C1226.29 395.746 1228.51 396.403 1230.43 397.563C1230.58 386.157 1239.92 376.972 1251.32 376.972C1259.19 376.972 1266.11 381.363 1269.64 387.823C1272.26 386.258 1275.29 385.35 1278.57 385.35C1286.39 385.35 1292.95 390.498 1295.12 397.614C1297.74 396.251 1300.77 395.444 1303.95 395.444C1312.02 395.393 1318.94 400.44 1321.71 407.506Z" fill="#55B06F"/>
<path d="M1321.71 407.506H1310.71C1308.49 405.891 1306.02 404.629 1303.29 403.872C1299.31 402.812 1295.27 402.762 1291.49 403.62C1291.24 396.251 1287.35 389.438 1281.19 385.501C1287.8 386.51 1293.25 391.305 1295.17 397.563C1297.79 396.201 1300.82 395.393 1304 395.393C1312.02 395.393 1318.94 400.44 1321.71 407.506Z" fill="#4A985B"/>
<path d="M1829.78 118.69C1830.11 121.042 1832.13 122.722 1834.14 122.386C1836.5 122.05 1838.17 120.034 1837.84 118.018C1837.5 115.666 1835.49 113.986 1833.47 114.322C1831.46 114.322 1829.44 116.338 1829.78 118.69Z" fill="#F79F77"/>
<path d="M594.644 395.616C594.644 395.616 596.41 399.249 595.754 400.057C595.098 400.865 593.483 400.864 592.676 399.35C591.919 397.836 592.322 395.212 592.322 395.212L594.644 395.616Z" fill="#F79F77"/>
<path d="M603.373 372.753C603.373 372.753 593.635 376.488 590.506 382.039C587.378 387.591 589.598 396.07 590.506 396.877C591.414 397.685 596.814 396.877 596.914 395.161C597.066 393.395 603.373 372.753 603.373 372.753Z" fill="#FFFDFC"/>
<path d="M601.809 437.404C600.749 439.019 601.254 441.038 602.111 441.038C603.02 441.038 605.442 441.038 606.552 441.038C607.662 441.038 606.299 437.404 606.299 437.404H601.809Z" fill="#1E272E"/>
<path d="M610.892 392.334C610.892 392.334 615.685 405.305 616.493 407.778C617.35 410.251 617.35 414.541 614.928 420.496C612.506 426.451 610.286 436.697 607.561 437.959C604.837 439.22 599.993 438.362 600.548 435.788C601.002 433.77 601.254 433.013 601.254 433.013C601.254 433.013 598.58 432.003 598.126 429.48C597.672 426.956 598.529 411.311 598.529 411.311C598.529 411.311 595.502 402.377 596.309 392.99C596.309 392.99 603.575 394.151 610.892 392.334Z" fill="#A3BDFF"/>
<path d="M622.093 393.949C622.093 393.949 626.029 394.908 626.231 395.917C626.433 396.927 625.423 398.189 623.758 397.835C622.093 397.482 620.327 395.463 620.327 395.463L622.093 393.949Z" fill="#F79F77"/>
<path d="M604.736 372.5C608.571 372.5 611.901 374.165 613.011 376.487C614.121 378.758 615.13 387.742 615.13 387.742C615.13 387.742 622.043 392.385 622.245 393.445C622.497 394.454 621.942 397.937 620.126 398.038C618.309 398.139 612.355 394.606 610.185 392.536C610.185 392.536 602.415 396.776 596.259 393.041C596.259 393.041 594.795 385.572 597.369 379.717C599.942 373.762 603.121 372.5 604.736 372.5Z" fill="#FFFDFC"/>
<path d="M605.291 365.182C606.653 364.526 608.369 365.232 609.126 366.746L610.185 368.917C610.791 370.128 610.387 371.541 609.277 372.046C607.763 372.752 605.896 371.995 605.089 370.33L604.281 368.715C603.626 367.352 604.08 365.787 605.291 365.182Z" fill="#F79F77"/>
<path d="M609.327 367.251C608.873 368.816 607.561 371.692 604.281 370.431L604.382 368.917L604.281 368.715C603.626 367.352 604.08 365.787 605.291 365.182C606.653 364.526 608.369 365.232 609.126 366.746L609.327 367.251Z" fill="#1E272E"/>
<path d="M608.671 371.844C608.469 370.582 607.208 368.866 608.267 367.655C608.57 367.352 608.368 366.645 607.864 366.696C606.956 366.797 605.745 366.696 604.887 366.999C603.878 367.352 603.524 368.412 603.171 369.421C602.717 370.885 602.212 371.188 600.8 371.692C600.144 371.945 599.538 372.247 598.983 372.702C598.277 373.307 597.469 374.115 597.52 375.124C597.57 376.184 598.63 376.891 599.538 377.244C600.144 377.496 600.8 377.597 601.456 377.496C602.112 377.395 602.566 377.093 603.121 376.84C604.13 376.335 604.988 376.386 606.047 376.083C607.309 375.78 608.217 375.074 608.57 373.812C608.772 373.156 608.772 372.5 608.671 371.844Z" fill="#1E272E"/>
<path d="M601.506 432.71C602.313 426.906 605.341 421.708 606.199 415.954C606.602 413.179 606.299 410.554 605.543 407.879C604.634 404.649 603.676 401.419 602.717 398.139C602.616 397.785 602.061 397.937 602.162 398.29C603.02 401.318 603.928 404.296 604.786 407.324C605.694 410.453 606.098 413.431 605.492 416.661C604.483 422.112 601.708 427.108 600.951 432.609C600.901 432.912 601.456 433.063 601.506 432.71Z" fill="#1E272E"/>
<path d="M607.662 378.202C607.309 381.13 607.057 384.107 607.107 387.035C607.107 389.053 607.41 391.072 608.924 392.536C609.176 392.788 609.58 392.384 609.327 392.132C607.612 390.467 607.662 387.943 607.713 385.722C607.763 383.199 607.965 380.675 608.268 378.202C608.268 377.849 607.662 377.849 607.662 378.202Z" fill="#1E272E"/>
<path d="M596.409 393.041C595.501 389.306 595.754 385.471 597.065 381.837C597.166 381.484 596.661 381.332 596.51 381.685C595.148 385.42 594.947 389.357 595.854 393.192C595.955 393.546 596.51 393.394 596.409 393.041Z" fill="#1E272E"/>
<path d="M502.202 331.9C501.294 331.446 500.133 331.951 499.629 332.96L498.922 334.424C498.519 335.231 498.822 336.19 499.528 336.543C500.537 337.048 501.799 336.493 502.354 335.383L502.909 334.272C503.312 333.414 503.009 332.304 502.202 331.9Z" fill="#F79F77"/>
<path d="M502.555 334.979L502.353 336.948C502.353 336.948 500.436 337.503 500.234 336.393C500.032 335.232 502.555 334.979 502.555 334.979Z" fill="#F79F77"/>
<path d="M502.858 334.323L502.555 334.979L502.454 335.988C500.487 335.685 499.78 334.222 499.528 333.112L499.578 333.011C500.083 331.951 501.243 331.497 502.152 331.951C503.01 332.304 503.312 333.364 502.858 334.323Z" fill="#1E272E"/>
<path d="M501.748 336.746C504.372 337.553 506.289 339.067 507.197 340.935C508.055 342.802 509.872 347.496 509.519 349.717C509.165 351.937 504.675 355.42 503.918 355.47C503.11 355.521 499.73 352.543 499.73 352.543L495.087 354.562C495.087 354.562 494.179 355.723 492.514 355.521C490.849 355.319 490.748 353.754 491.101 352.593C491.505 351.483 493.271 347.395 493.473 346.133C493.675 344.871 494.23 339.017 495.592 337.604C497.207 335.787 499.679 336.09 501.748 336.746Z" fill="#FFBF52"/>
<path d="M503.615 350.928C503.615 350.928 505.583 356.833 503.867 364.756C503.867 364.756 507.652 381.966 506.693 382.925C505.734 383.884 502.909 384.086 501.143 382.925L498.317 369.4C498.317 369.4 496.248 382.774 494.785 382.976C493.322 383.228 490.597 382.522 490.294 380.705C489.941 378.888 492.06 366.472 492.312 364.756C492.565 363.091 495.794 350.271 495.794 350.271C495.794 350.271 499.932 351.483 503.615 350.928Z" fill="#FFFDFC"/>
<path d="M1292.55 370.561C1292.55 370.561 1295.22 369.552 1296.43 369.148C1298.5 368.442 1299.76 370.107 1298.55 371.318C1297.34 372.53 1293.2 372.833 1293.2 372.833L1292.55 370.561Z" fill="#F79F77"/>
<path d="M1264.85 386.661C1264.85 386.661 1263.23 389.033 1262.47 390.042C1261.21 391.809 1259.19 391.153 1259.5 389.487C1259.8 387.822 1263.03 385.197 1263.03 385.197L1264.85 386.661Z" fill="#F79F77"/>
<path d="M1278.22 353.653C1279.73 353.249 1281.34 354.259 1281.8 355.975L1282.45 358.397C1282.81 359.71 1282.15 361.072 1280.99 361.426C1279.33 361.88 1277.56 360.769 1277.06 358.902L1276.55 357.085C1276.15 355.521 1276.9 354.006 1278.22 353.653Z" fill="#F79F77"/>
<path d="M1276.96 358.751L1276.5 361.628L1279.88 362.132L1279.83 359.155L1276.96 358.751Z" fill="#F79F77"/>
<path d="M1278.22 353.654C1276.85 354.007 1276.05 355.571 1276.45 357.035L1276.85 358.6L1276.8 359.306C1278.22 359.003 1280.84 357.59 1281.7 355.672C1281.19 354.158 1279.68 353.25 1278.22 353.654Z" fill="#1E272E"/>
<path d="M1270.8 367.785C1270.8 367.785 1260.71 382.775 1259.95 384.743C1259.19 386.711 1263.58 388.427 1263.89 388.124C1265.4 386.257 1274.89 373.741 1274.89 373.741L1270.8 367.785Z" fill="#FFBF52"/>
<path d="M1271.66 385.349C1271.66 385.349 1267.87 401.6 1263.84 409.776C1259.9 417.801 1254.35 427.945 1254.35 427.945L1258.94 432.285C1258.94 432.285 1272.41 419.668 1278.12 407.101C1278.12 407.101 1285.94 424.008 1289.17 435.213H1297.24C1297.24 435.213 1292.7 406.849 1284.32 385.349H1271.66Z" fill="#FFFDFC"/>
<path d="M1272.77 392.212C1273.68 397.461 1275.34 402.508 1277.71 407.302C1277.86 407.605 1278.37 407.353 1278.22 406.999C1275.9 402.255 1274.23 397.259 1273.32 392.06C1273.22 391.707 1272.67 391.859 1272.77 392.212Z" fill="#1E272E"/>
<path d="M1295.37 435.213C1295.37 435.213 1295.93 435.919 1297.49 436.727C1299.06 437.534 1300.22 437.434 1300.82 438.09C1301.43 438.746 1301.28 439.301 1301.28 439.301H1292.35L1292.09 435.213H1295.37Z" fill="#1E272E"/>
<path d="M1258.94 432.285C1258.94 432.285 1258.89 433.194 1259.5 434.859C1260.1 436.525 1261.01 437.231 1261.01 438.089C1261.01 438.998 1260.51 439.3 1260.51 439.3L1253.9 433.244L1256.47 430.064L1258.94 432.285Z" fill="#1E272E"/>
<path d="M1269.74 386.459C1269.74 386.459 1279.93 386.509 1284.37 385.348C1284.37 385.348 1285.18 366.977 1281.8 363.495C1278.42 360.063 1274.58 361.426 1272.46 364.706C1269.49 369.248 1269.74 386.459 1269.74 386.459Z" fill="#1E272E"/>
<path d="M1277.91 373.74C1277.91 373.74 1279.58 380.755 1283.31 380.907C1287.05 381.109 1295.63 375.305 1295.63 375.305C1295.63 375.305 1294.72 369.854 1293.2 370.308C1291.69 370.762 1285.13 373.891 1285.13 373.891L1283.77 369.602L1277.91 373.74Z" fill="#FFBF52"/>
<path d="M1273.93 362.99C1273.93 362.99 1271.05 365.362 1267.02 371.065L1271.66 377.424L1273.93 362.99Z" fill="#1E272E"/>
<path d="M1280.49 358.398C1280.49 358.853 1280.13 359.257 1279.68 359.308C1279.23 359.308 1278.82 358.954 1278.77 358.499C1278.72 358.045 1279.13 357.641 1279.58 357.59C1280.08 357.54 1280.49 357.944 1280.49 358.398Z" fill="#F79F77"/>
<path d="M1197.63 509.303H1177.7V534.487H1197.63V509.303Z" fill="#DBDCDE"/>
<path d="M1197.63 534.537C1197.63 535.647 1193.14 536.606 1187.64 536.606C1182.14 536.606 1177.65 535.698 1177.65 534.537C1177.65 533.376 1182.14 532.468 1187.64 532.468C1193.19 532.468 1197.63 533.376 1197.63 534.537Z" fill="#DBDCDE"/>
<path d="M1187.7 511.372C1193.21 511.372 1197.69 510.446 1197.69 509.303C1197.69 508.16 1193.21 507.233 1187.7 507.233C1182.18 507.233 1177.7 508.16 1177.7 509.303C1177.7 510.446 1182.18 511.372 1187.7 511.372Z" fill="#B9BDC9"/>
<path d="M259.559 509.303H239.628V534.487H259.559V509.303Z" fill="#DBDCDE"/>
<path d="M259.559 534.537C259.559 535.647 255.068 536.606 249.568 536.606C244.068 536.606 239.578 535.698 239.578 534.537C239.578 533.376 244.068 532.468 249.568 532.468C255.119 532.468 259.559 533.376 259.559 534.537Z" fill="#DBDCDE"/>
<path d="M249.568 511.372C255.086 511.372 259.559 510.446 259.559 509.303C259.559 508.16 255.086 507.233 249.568 507.233C244.051 507.233 239.578 508.16 239.578 509.303C239.578 510.446 244.051 511.372 249.568 511.372Z" fill="#B9BDC9"/>
<path d="M1426.92 406.496C1426.92 406.849 1426.92 407.152 1426.92 407.505H1347.04C1347.65 400.591 1353.5 395.19 1360.57 395.19C1364.5 395.19 1368.03 396.856 1370.51 399.531C1371.36 389.084 1380.14 380.807 1390.84 380.807C1396.44 380.807 1401.54 383.078 1405.22 386.712C1405.83 386.661 1406.48 386.611 1407.09 386.611C1418.04 386.661 1426.92 395.544 1426.92 406.496Z" fill="#55B06F"/>
<path d="M1426.92 406.496C1426.92 406.849 1426.92 407.152 1426.92 407.505H1419.6C1420.41 396.906 1414.3 389.285 1403.86 388.276C1403.15 388.226 1402.5 388.175 1401.79 388.175C1398.81 384.642 1394.78 381.967 1390.03 380.807C1390.29 380.807 1390.54 380.807 1390.79 380.807C1396.39 380.807 1401.49 383.078 1405.17 386.712C1405.78 386.661 1406.43 386.611 1407.04 386.611C1418.04 386.661 1426.92 395.544 1426.92 406.496Z" fill="#4A985B"/>
<path d="M1176.44 401.954C1176.44 403.922 1176.04 405.789 1175.38 407.505H1107.21C1107.36 399.733 1113.72 393.424 1121.54 393.424C1124.27 393.424 1126.84 394.181 1129.01 395.544C1128.96 395.14 1128.96 394.686 1128.96 394.232C1128.96 385.45 1136.08 378.334 1144.81 378.334C1151.11 378.334 1156.56 382.018 1159.14 387.318C1159.94 387.166 1160.8 387.116 1161.66 387.116C1169.83 387.166 1176.44 393.778 1176.44 401.954Z" fill="#55B06F"/>
<path d="M1176.44 401.954C1176.44 403.922 1176.04 405.79 1175.38 407.505H1170.29C1169.68 400.793 1165.8 394.686 1159.08 392.465C1158.08 392.163 1157.12 391.91 1156.11 391.759C1155.45 386.611 1152.68 381.867 1148.44 378.788C1153.18 379.898 1157.07 383.078 1159.13 387.368C1159.94 387.217 1160.8 387.166 1161.66 387.166C1169.83 387.166 1176.44 393.778 1176.44 401.954Z" fill="#4A985B"/>
<path d="M466.944 410.584C466.944 415.581 465.632 420.224 463.26 424.261H404.627C400.237 419.921 397.513 413.915 397.513 407.253C397.513 398.421 402.306 390.75 409.37 386.611C408.715 384.34 408.311 381.968 408.311 379.495C408.311 365.767 419.462 354.613 433.187 354.613C446.912 354.613 458.063 365.767 458.063 379.495C458.063 382.876 457.407 386.056 456.196 388.983C462.756 393.929 466.944 401.752 466.944 410.584Z" fill="#55B06F"/>
<path d="M147.39 486.843C147.39 491.183 145.926 495.221 143.454 498.451H0V476.295C3.93577 474.175 8.42659 472.913 13.2202 472.913C19.8302 472.913 25.8853 475.235 30.6284 479.071C30.4265 477.607 30.3256 476.093 30.3256 474.579C30.3256 455.249 45.9678 439.604 65.2934 439.604C75.1833 439.604 84.1145 443.692 90.4723 450.303C94.8117 446.972 100.261 445.004 106.114 445.004C119.435 445.004 130.385 455.098 131.747 468.119C140.679 469.734 147.39 477.506 147.39 486.843Z" fill="#38874F"/>
<path d="M364.16 467.06H210.816C210.311 464.688 210.059 462.215 210.059 459.742C210.059 441.674 223.38 426.735 240.687 424.161C243.513 407.203 258.298 394.232 276.059 394.232C295.284 394.232 310.976 409.373 311.885 428.35C326.366 428.703 337.972 440.513 337.972 455.048C337.972 455.351 337.972 455.603 337.972 455.856C340.646 454.14 343.825 453.13 347.256 453.13C355.632 453.13 362.595 459.136 364.16 467.06Z" fill="#38874F"/>
<path d="M691.787 407.001C691.787 407.152 691.787 407.354 691.787 407.505H615.494C615.443 407.051 615.443 406.597 615.443 406.143C615.443 398.421 621.7 392.163 629.42 392.163H629.521C630.379 383.936 637.292 377.526 645.769 377.526C651.42 377.526 656.365 380.403 659.292 384.743C661.26 383.734 663.53 383.179 665.902 383.179C673.723 383.179 680.081 389.286 680.586 396.957C680.989 396.907 681.342 396.856 681.746 396.856C687.297 396.907 691.787 401.449 691.787 407.001Z" fill="#55B06F"/>
<path d="M767.879 407.506H720.044C719.691 406.294 719.54 404.982 719.54 403.62C719.54 395.443 726.15 388.832 734.324 388.832C737.755 388.832 740.884 389.993 743.407 391.961C745.374 390.043 748.049 388.832 750.975 388.832C756.324 388.832 760.714 392.718 761.572 397.816C766.264 398.825 768.686 402.963 767.879 407.506Z" fill="#55B06F"/>
<path d="M767.879 407.505H765.003C764.549 403.922 762.379 400.742 758.645 399.026C758.847 395.948 758.09 392.92 756.526 390.346C759.2 391.961 761.067 394.636 761.622 397.815C766.264 398.825 768.687 402.963 767.879 407.505Z" fill="#4A985B"/>
<path d="M303.609 209.866C319.403 216.023 333.077 227.026 342.462 241.157C343.169 242.217 344.935 241.208 344.228 240.148C334.54 225.562 320.513 214.308 304.164 207.948C302.953 207.444 302.398 209.412 303.609 209.866Z" fill="#1E272E"/>
<path d="M291.903 219.809C303.811 226.319 317.435 228.742 330.857 226.824C332.118 226.622 331.614 224.704 330.302 224.856C317.435 226.723 304.316 224.25 292.912 218.042C291.802 217.437 290.793 219.153 291.903 219.809Z" fill="#1E272E"/>
<path d="M348.87 247.164C346.549 234.344 346.398 221.273 348.517 208.403C348.719 207.141 346.801 206.586 346.549 207.848C344.379 221.071 344.531 234.496 346.902 247.668C347.155 248.981 349.123 248.476 348.87 247.164Z" fill="#1E272E"/>
<path d="M347.256 231.417C352.907 223.039 356.994 213.753 359.416 203.911C359.719 202.649 357.802 202.094 357.449 203.356C355.077 213.046 351.04 222.13 345.49 230.357C344.783 231.467 346.499 232.477 347.256 231.417Z" fill="#1E272E"/>
<path d="M377.733 264.222C380.155 256.046 383.132 248.021 386.614 240.249C387.119 239.088 385.403 238.028 384.848 239.24C381.265 247.214 378.238 255.339 375.765 263.717C375.412 264.929 377.33 265.484 377.733 264.222Z" fill="#1E272E"/>
<path d="M383.485 260.286C391.457 252.513 398.168 243.58 403.416 233.789C404.022 232.628 402.306 231.619 401.65 232.78C396.453 242.419 389.893 251.201 382.022 258.872C381.113 259.781 382.526 261.194 383.485 260.286Z" fill="#1E272E"/>
<path d="M325.003 421.486C325.458 415.177 326.416 409.02 328.283 402.963C330.302 396.503 332.875 390.245 334.893 383.785C339.737 368.442 342.714 352.393 343.522 336.343C343.976 327.309 343.269 318.326 340.646 309.645C339.889 307.172 336.003 308.232 336.76 310.705C341.403 326.199 339.737 342.904 336.912 358.6C335.499 366.625 333.531 374.498 331.109 382.271C329.091 388.68 326.568 394.888 324.549 401.298C322.43 407.909 321.421 414.622 320.916 421.536C320.765 424.11 324.802 424.11 325.003 421.486Z" fill="#1E272E"/>
<path d="M334.893 382.069C347.66 374.397 357.6 361.528 364.311 348.456C371.93 333.618 372.687 316.862 372.687 300.459C372.687 297.885 368.65 297.835 368.65 300.459C368.65 316.054 368.095 332.205 360.779 346.387C354.37 358.903 344.985 371.268 332.825 378.586C330.655 379.898 332.673 383.381 334.893 382.069Z" fill="#1E272E"/>
<path d="M357.6 357.339C367.49 354.412 375.765 348.809 381.971 340.583C388.228 332.306 391.811 322.262 392.315 311.967C392.366 310.654 390.348 310.654 390.297 311.967C389.793 321.657 386.462 331.095 380.71 338.968C374.756 347.093 366.733 352.595 357.095 355.421C355.834 355.774 356.339 357.692 357.6 357.339Z" fill="#1E272E"/>
<path d="M317.99 327.36C321.977 338.514 326.972 350.929 339.032 355.27C340.243 355.724 340.798 353.755 339.587 353.301C328.284 349.213 323.692 337.201 319.958 326.805C319.504 325.593 317.536 326.098 317.99 327.36Z" fill="#1E272E"/>
<path d="M376.623 140.723C373.747 140.723 370.971 141.177 368.347 141.985C366.228 127.601 353.866 116.599 338.93 116.599C330.857 116.599 323.54 119.829 318.192 125.027C305.476 128.156 296.091 139.663 296.091 153.341C296.091 153.744 296.091 154.148 296.141 154.552C293.366 153.896 290.49 153.492 287.513 153.492C267.531 153.492 251.334 169.693 251.334 189.679C251.334 209.665 267.531 225.865 287.513 225.865C301.893 225.865 314.306 217.487 320.16 205.324C326.517 211.482 335.196 215.267 344.733 215.267C358.256 215.267 370.013 207.646 375.967 196.442C376.219 196.442 376.471 196.442 376.774 196.442C392.164 196.442 404.627 183.976 404.627 168.582C404.476 153.189 392.013 140.723 376.623 140.723Z" fill="#43935A"/>
<path d="M404.426 169.996C403.719 184.733 391.508 196.493 376.623 196.493C376.371 196.493 376.119 196.493 375.816 196.493C369.862 207.697 358.155 215.318 344.582 215.318C335.045 215.318 326.366 211.533 320.009 205.375C314.155 217.538 301.743 225.916 287.362 225.916C267.38 225.916 251.183 209.716 251.183 189.73C251.183 187.963 251.334 186.197 251.536 184.531C257.642 191.597 266.22 196.543 276.16 197.906C291.853 200.076 306.637 192.808 314.862 180.443C320.866 188.115 329.747 193.565 340.142 195.029C354.926 197.098 368.903 190.537 377.027 179.232C377.33 179.282 377.582 179.333 377.885 179.383C388.128 180.645 397.866 176.91 404.426 169.996Z" fill="#2E613F"/>
<path d="M407.453 216.377C405.637 216.377 403.921 216.73 402.357 217.437C399.481 211.532 393.476 207.494 386.462 207.494C376.724 207.494 368.802 215.418 368.802 225.158C368.802 234.899 376.724 242.823 386.462 242.823C390.953 242.823 395.04 241.157 398.118 238.432C400.49 240.855 403.77 242.419 407.453 242.419C414.618 242.419 420.421 236.615 420.421 229.448C420.421 222.181 414.618 216.377 407.453 216.377Z" fill="#43935A"/>
<path d="M420.421 230.105C420.017 236.919 414.366 242.319 407.453 242.319C403.77 242.319 400.49 240.805 398.118 238.332C394.99 241.057 390.953 242.723 386.462 242.723C376.724 242.723 368.802 234.799 368.802 225.058C368.802 224.806 368.802 224.604 368.802 224.352C372.334 227.985 377.077 230.408 382.526 230.963C388.178 231.518 393.526 229.954 397.815 226.926C400.49 230.307 404.426 232.679 409.068 233.133C413.256 233.588 417.242 232.427 420.421 230.105Z" fill="#2E613F"/>
<path d="M441.109 295.16C441.109 280.373 429.352 268.311 414.669 267.755C408.563 258.015 397.765 251.555 385.453 251.555C377.985 251.555 371.072 253.927 365.471 257.964C361.485 243.328 348.063 232.578 332.169 232.578C322.481 232.578 313.751 236.565 307.444 242.975C303.155 241.057 298.362 239.997 293.366 239.997C277.674 239.997 264.403 250.343 259.912 264.576C242.252 266.14 228.375 280.978 228.375 299.047C228.375 318.175 243.866 333.669 262.99 333.669C265.664 333.669 268.288 333.366 270.811 332.76C281.71 344.772 297.453 352.342 315.013 352.342C335.953 352.342 354.421 341.492 365.017 325.139C371.274 332.205 380.407 336.646 390.6 336.646C402.155 336.646 412.398 330.893 418.604 322.061C431.421 319.79 441.109 308.636 441.109 295.16Z" fill="#38874F"/>
<path d="M441.109 295.16C441.109 308.636 431.421 319.79 418.655 322.111C412.448 330.893 402.256 336.697 390.65 336.697C380.457 336.697 371.375 332.256 365.068 325.19C354.421 341.542 336.003 352.393 315.063 352.393C297.554 352.393 281.811 344.822 270.912 332.811C268.389 333.416 265.765 333.719 263.091 333.719C244.825 333.719 229.889 319.588 228.577 301.671C233.825 303.942 239.628 305.204 245.683 305.204C249.013 305.204 252.293 304.8 255.421 304.094C268.994 319.033 288.522 328.42 310.32 328.42C336.357 328.42 359.265 314.945 372.485 294.656C380.256 303.437 391.609 308.939 404.274 308.939C418.655 308.939 431.37 301.772 439.04 290.82C439.595 290.719 440.2 290.568 440.756 290.467C440.957 292.031 441.109 293.596 441.109 295.16Z" fill="#29693D"/>
<path d="M169.995 488.257C170.247 469.533 168.33 450.859 168.178 432.185C167.977 413.41 169.692 394.686 173.275 376.265C173.779 373.741 169.894 372.631 169.389 375.205C165.807 393.626 164.041 412.401 164.142 431.176C164.293 450.203 166.261 469.179 166.009 488.257C165.908 490.881 169.945 490.881 169.995 488.257Z" fill="#1E272E"/>
<path d="M167.573 439.402C178.624 422.344 186.192 403.216 189.775 383.179C190.027 381.918 188.059 381.363 187.807 382.624C184.275 402.459 176.757 421.435 165.807 438.343C165.101 439.453 166.867 440.462 167.573 439.402Z" fill="#1E272E"/>
<path d="M146.229 377.173C150.417 391.658 155.716 406.193 165.404 417.953C166.211 418.962 167.674 417.499 166.816 416.54C157.381 405.083 152.234 390.8 148.147 376.669C147.844 375.356 145.876 375.912 146.229 377.173Z" fill="#1E272E"/>
<path d="M235.793 343.156C238.165 337.049 239.477 330.387 239.477 323.423C239.477 295.362 218.234 272.297 190.936 269.37C182.66 259.629 170.348 253.472 156.573 253.472C131.697 253.472 111.514 273.66 111.514 298.541C111.514 305.405 113.027 311.916 115.803 317.72C105.761 324.836 99.1514 336.545 99.1514 349.818C99.1514 371.52 116.711 389.084 138.408 389.084C146.482 389.084 154 386.661 160.257 382.472C166.715 386.661 174.436 389.084 182.761 389.084C189.775 389.084 196.385 387.317 202.188 384.239C206.527 387.267 211.775 389.084 217.477 389.084C232.16 389.084 244.119 377.173 244.119 362.436C244.119 354.865 240.89 348.001 235.793 343.156Z" fill="#38874F"/>
<path d="M244.119 362.486C244.119 377.173 232.21 389.134 217.476 389.134C211.775 389.134 206.527 387.317 202.187 384.289C196.385 387.368 189.775 389.134 182.761 389.134C174.486 389.134 166.766 386.712 160.256 382.523C153.999 386.712 146.481 389.134 138.408 389.134C118.981 389.134 102.834 375.003 99.7061 356.43C110.403 364.202 123.27 369.199 137.348 370.258C149.862 371.217 161.821 368.997 172.568 364.354C179.834 370.359 188.967 374.246 199.059 375.053C216.972 376.416 233.371 367.685 242.504 353.604C243.563 356.329 244.119 359.357 244.119 362.486Z" fill="#29693D"/>
<path d="M1624.51 477.961C1622.14 445.61 1628.4 412.804 1642.58 383.582C1646.62 375.305 1651.26 367.382 1656.46 359.761C1657.92 357.59 1654.44 355.572 1652.97 357.742C1634.35 384.844 1623.2 416.791 1620.58 449.546C1619.82 458.984 1619.82 468.523 1620.48 477.961C1620.68 480.535 1624.72 480.585 1624.51 477.961Z" fill="#1E272E"/>
<path d="M1624.62 437.887C1631.83 434.96 1637.58 429.661 1642.73 424.008C1647.98 418.255 1652.57 411.895 1656.46 405.133C1664.28 391.556 1669.07 376.415 1670.63 360.871C1670.79 359.558 1668.77 359.609 1668.62 360.871C1667.15 375.81 1662.51 390.345 1655.14 403.417C1651.51 409.826 1647.27 415.832 1642.43 421.384C1637.28 427.238 1631.43 432.992 1624.11 436.02C1622.9 436.424 1623.4 438.392 1624.62 437.887Z" fill="#1E272E"/>
<path d="M1605.29 345.831C1602.82 372.075 1608.37 399.682 1626.74 419.466C1627.64 420.425 1629.06 419.012 1628.15 418.053C1610.13 398.622 1604.89 371.57 1607.31 345.831C1607.46 344.519 1605.44 344.519 1605.29 345.831Z" fill="#1E272E"/>
<path d="M1660.95 288.649C1656.66 272.953 1655.4 256.651 1657.06 240.451C1657.21 239.138 1655.19 239.189 1655.04 240.451C1653.38 256.803 1654.69 273.306 1659.03 289.154C1659.38 290.416 1661.3 289.911 1660.95 288.649Z" fill="#1E272E"/>
<path d="M1671.69 292.838C1674.37 280.523 1678.25 268.057 1686.88 258.468C1687.74 257.509 1686.33 256.096 1685.47 257.055C1676.64 266.897 1672.5 279.615 1669.78 292.283C1669.47 293.545 1671.44 294.1 1671.69 292.838Z" fill="#1E272E"/>
<path d="M1637.99 270.732C1644.35 244.942 1642.12 217.588 1631.73 193.16C1631.23 191.949 1629.46 193.009 1629.96 194.17C1640.16 218.042 1642.28 244.993 1636.02 270.177C1635.77 271.439 1637.68 271.994 1637.99 270.732Z" fill="#1E272E"/>
<path d="M1613.36 205.424C1618.71 218.849 1627.85 230.407 1639.75 238.684C1640.81 239.441 1641.82 237.674 1640.76 236.917C1629.36 228.993 1620.48 217.789 1615.33 204.869C1614.83 203.708 1612.91 204.213 1613.36 205.424Z" fill="#1E272E"/>
<path d="M1756.92 200.377C1756.82 198.207 1756.62 195.986 1756.16 193.766C1751.72 171.912 1730.43 157.781 1708.58 162.172C1694.3 165.048 1683.3 175.142 1678.66 187.911C1678.2 187.962 1677.75 188.063 1677.29 188.164C1657.36 192.201 1644.5 211.632 1648.53 231.517C1652.57 251.453 1672 264.322 1691.88 260.285C1693.59 259.931 1695.26 259.477 1696.87 258.872C1706.46 268.511 1720.59 273.306 1734.92 270.429C1757.62 265.836 1772.31 243.68 1767.72 220.969C1766.05 212.995 1762.22 205.929 1756.92 200.377Z" fill="#43935A"/>
<path d="M1767.72 221.019C1772.31 243.731 1757.62 265.887 1734.92 270.48C1720.59 273.407 1706.46 268.612 1696.87 258.922C1695.26 259.477 1693.59 259.982 1691.88 260.335C1672.3 264.322 1653.18 251.907 1648.74 232.577C1656.41 235.807 1665.08 236.816 1673.81 235.05C1675.83 234.646 1677.8 234.091 1679.67 233.435C1690.87 244.69 1707.37 250.292 1724.12 246.91C1744.3 242.822 1759.04 226.874 1762.57 207.847C1764.99 211.783 1766.71 216.225 1767.72 221.019Z" fill="#2E613F"/>
<path d="M1715.79 313.681C1712.87 293.847 1695.81 278.655 1675.18 278.655C1667.61 278.655 1660.54 280.724 1654.49 284.257C1653.98 259.578 1633.85 239.743 1609.07 239.743C1591.36 239.743 1575.97 249.888 1568.51 264.726C1554.38 273.356 1544.94 288.901 1544.94 306.615C1544.94 333.718 1566.89 355.672 1593.99 355.672C1600.55 355.672 1606.75 354.41 1612.46 352.089C1619.22 368.643 1635.51 380.352 1654.54 380.352C1662.76 380.352 1670.53 378.131 1677.19 374.295C1683.7 380.402 1692.48 384.137 1702.12 384.137C1722.3 384.137 1738.65 367.785 1738.65 347.597C1738.55 332.203 1729.17 319.132 1715.79 313.681Z" fill="#38874F"/>
<path d="M1738.55 348.355C1738.15 368.189 1721.95 384.138 1702.02 384.138C1692.38 384.138 1683.65 380.403 1677.09 374.296C1670.43 378.132 1662.71 380.352 1654.44 380.352C1635.41 380.352 1619.17 368.694 1612.35 352.089C1606.65 354.411 1600.45 355.673 1593.89 355.673C1571.94 355.673 1553.37 341.239 1547.11 321.354C1557.56 327.006 1569.77 329.731 1582.48 328.571C1590.81 327.814 1598.58 325.442 1605.59 321.858C1616.14 342.197 1638.19 355.168 1662.41 352.998C1672.9 352.039 1682.49 348.355 1690.57 342.702C1699.6 349.717 1711.15 353.452 1723.41 352.342C1728.86 351.837 1733.91 350.424 1738.55 348.355Z" fill="#29693D"/>
<path d="M1646.72 142.539C1646.06 142.539 1645.46 142.59 1644.8 142.64C1640.41 139.208 1634.91 137.189 1628.96 137.189C1614.73 137.189 1603.22 148.697 1603.22 162.929C1603.22 163.383 1603.22 163.888 1603.27 164.342H1603.22C1586.12 164.342 1572.24 178.221 1572.24 195.33C1572.24 212.44 1586.12 226.319 1603.22 226.319C1615.08 226.319 1625.32 219.657 1630.57 209.916C1639.7 208.554 1646.72 200.68 1646.72 191.192C1646.72 190.233 1646.67 189.325 1646.51 188.416C1646.57 188.416 1646.67 188.416 1646.72 188.416C1659.38 188.416 1669.62 178.171 1669.62 165.503C1669.62 152.835 1659.38 142.539 1646.72 142.539Z" fill="#2E613F"/>
<path d="M1669.62 165.503C1669.62 166.462 1669.57 167.421 1669.47 168.329C1663.67 172.518 1656.2 174.386 1648.58 172.872C1648.48 172.872 1648.43 172.821 1648.38 172.821C1648.33 173.881 1648.18 174.941 1647.98 176.001C1645.81 186.852 1635.97 194.17 1625.27 193.615C1617.1 203.507 1603.88 208.705 1590.4 205.98C1583.29 204.516 1577.08 201.084 1572.29 196.34C1572.29 196.037 1572.29 195.684 1572.29 195.331C1572.29 178.221 1586.17 164.342 1603.27 164.342H1603.32C1603.27 163.888 1603.27 163.383 1603.27 162.929C1603.27 148.697 1614.78 137.189 1629.01 137.189C1635.01 137.189 1640.51 139.259 1644.85 142.64C1645.51 142.59 1646.11 142.539 1646.77 142.539C1659.38 142.539 1669.62 152.835 1669.62 165.503Z" fill="#43935A"/>
<path d="M1794.26 638H1367.93C1393.11 605.548 1432.47 584.603 1476.72 584.603C1477.68 584.603 1478.59 584.603 1479.5 584.654C1498.17 542.562 1540.3 513.188 1589.34 513.188C1644.75 513.188 1691.42 550.738 1705.25 601.813C1713.27 598.533 1722 596.716 1731.18 596.716C1759.44 596.716 1783.66 613.724 1794.26 638Z" fill="#38874F"/>
<path d="M1794.26 638H1765.14C1752.33 629.016 1737.29 622.859 1720.74 620.588C1707.22 618.72 1694 619.578 1681.53 622.707C1681.08 584.25 1659.99 547.255 1632.79 521.264C1668.06 534.941 1695.26 564.819 1705.25 601.813C1713.27 598.533 1722 596.716 1731.18 596.716C1759.44 596.716 1783.66 613.724 1794.26 638Z" fill="#29693D"/>
<path d="M384.797 638H0V562.044C9.78897 557.501 20.7385 554.877 32.243 554.826C46.1192 529.592 72.9631 512.482 103.743 512.482C139.619 512.482 170.096 535.648 180.995 567.797C188.463 563.76 196.99 561.488 206.022 561.488C227.821 561.488 246.541 574.762 254.513 593.638C265.059 590.66 276.16 589.045 287.614 589.045C327.476 589.045 362.797 608.324 384.797 638Z" fill="#38874F"/>
<path d="M1627.49 510.211C1627.44 509.655 1627.44 509.1 1627.44 508.545C1627.44 487.802 1644.24 470.996 1664.98 470.996C1668.36 470.996 1671.64 471.45 1674.77 472.308C1674.12 469.027 1673.76 465.696 1673.76 462.214C1673.76 434.456 1696.27 411.946 1724.02 411.946C1739.71 411.946 1753.74 419.163 1762.97 430.418C1768.37 428.601 1774.12 427.642 1780.08 427.642C1808.94 427.642 1832.45 450.354 1833.82 478.869H1833.87C1851.68 478.869 1866.26 492.748 1867.42 510.261H1627.49V510.211Z" fill="#38874F"/>
<path d="M1867.47 510.211H1849.36C1844.36 506.678 1838.41 504.306 1831.95 503.398C1832.1 495.625 1831.9 503.398 1831.85 503.398C1834.83 469.734 1810.86 439.301 1777.05 434.658C1770.04 433.699 1763.12 433.901 1756.51 435.163C1750.56 425.472 1741.93 417.498 1731.39 412.451C1744.05 414.319 1755.2 420.93 1762.97 430.368C1768.37 428.551 1774.12 427.592 1780.08 427.592C1808.94 427.592 1832.45 450.303 1833.82 478.819H1833.87C1851.73 478.819 1866.31 492.698 1867.47 510.211Z" fill="#29693D"/>
<path d="M1508.66 407.253C1508.66 413.915 1505.94 419.921 1501.55 424.261H1442.91C1440.59 420.224 1439.23 415.58 1439.23 410.584C1439.23 401.752 1443.42 393.929 1449.93 388.932C1448.72 386.005 1448.06 382.826 1448.06 379.444C1448.06 365.716 1459.21 354.562 1472.94 354.562C1486.66 354.562 1497.81 365.716 1497.81 379.444C1497.81 381.917 1497.46 384.34 1496.75 386.56C1503.87 390.749 1508.66 398.421 1508.66 407.253Z" fill="#55B06F"/>
<path d="M1508.66 407.253C1508.66 413.915 1505.94 419.921 1501.55 424.261H1488.53C1491 421.384 1492.82 417.952 1493.83 414.016C1496.2 404.881 1494.99 395.645 1488.73 389.437C1490.04 387.267 1491.05 384.895 1491.71 382.321C1493.98 373.589 1491.61 364.757 1486.16 358.348C1493.12 362.739 1497.76 370.561 1497.76 379.393C1497.76 381.866 1497.41 384.289 1496.7 386.51C1503.87 390.749 1508.66 398.421 1508.66 407.253Z" fill="#4A985B"/>
<path d="M328.586 467.06C331.16 450.405 320.412 434.557 303.912 430.823C305.476 420.375 303.155 410.18 297.958 401.752C306.031 407.96 311.33 417.549 311.885 428.4C326.366 428.753 337.972 440.563 337.972 455.098C337.972 455.351 337.972 455.654 337.921 455.906C340.596 454.19 343.774 453.181 347.206 453.181C355.582 453.181 362.545 459.187 364.059 467.11H328.586V467.06Z" fill="#29693D"/>
<path d="M691.787 407.001C691.787 407.152 691.787 407.354 691.787 407.506H685.127C683.663 404.982 681.14 403.115 678.012 402.61C677.608 402.56 677.255 402.509 676.851 402.509C677.608 394.838 672.26 387.823 664.539 386.561C662.168 386.157 659.897 386.409 657.778 387.065C655.558 382.321 651.117 378.687 645.567 377.779C645.163 377.729 644.76 377.678 644.356 377.628C644.81 377.577 645.264 377.577 645.718 377.577C651.37 377.577 656.315 380.454 659.241 384.794C661.209 383.785 663.48 383.23 665.851 383.23C673.672 383.23 680.03 389.337 680.535 397.008C680.938 396.957 681.292 396.907 681.695 396.907C687.296 396.907 691.787 401.449 691.787 407.001Z" fill="#4A985B"/>
<path d="M466.944 410.584C466.944 415.581 465.581 420.224 463.26 424.261H453.572C457.306 412.098 454.783 401.247 448.425 394.232C450.444 391.153 451.857 387.671 452.614 383.835C454.581 373.287 450.545 362.991 442.875 356.531C451.806 360.316 458.114 369.149 458.114 379.495C458.114 382.876 457.458 386.056 456.247 388.983C462.756 393.929 466.944 401.752 466.944 410.584Z" fill="#4A985B"/>
<path d="M147.39 486.843C147.39 491.184 145.926 495.221 143.454 498.451H134.169C135.38 489.972 132.403 483.108 125.339 479.323C128.417 464.838 120.092 450.101 105.711 445.408C105.307 445.307 104.954 445.155 104.55 445.054C105.055 445.004 105.61 445.004 106.115 445.004C119.436 445.004 130.385 455.098 131.747 468.119C140.679 469.734 147.39 477.506 147.39 486.843Z" fill="#29693D"/>
<ellipse cx="921.913" cy="410.837" rx="0.976562" ry="0.976624" fill="#1E272E"/>
<ellipse cx="925.818" cy="412.79" rx="0.976105" ry="0.976593" fill="#1E272E"/>
<path d="M920.674 413.362C920.375 413.602 920.158 413.899 920.046 414.226C919.934 414.553 919.93 414.897 920.035 415.225C920.139 415.554 920.349 415.855 920.643 416.099C920.937 416.342 921.305 416.521 921.711 416.617C922.117 416.712 922.548 416.722 922.96 416.644C923.372 416.567 923.752 416.405 924.062 416.174C924.373 415.944 924.603 415.652 924.73 415.329C924.857 415.006 924.877 414.662 924.787 414.331L922.401 414.743L920.674 413.362Z" fill="#1E272E"/>
<path d="M217.375 537.818H211.27V495.221C211.27 493.556 212.632 492.143 214.348 492.143C216.013 492.143 217.426 493.505 217.426 495.221V537.818H217.375Z" fill="#1E272E"/>
<path d="M215.357 496.887C215.357 440.563 215.357 384.239 215.357 327.915C215.357 312.521 215.357 297.078 215.357 281.684C215.357 280.372 213.339 280.372 213.339 281.684C213.339 338.008 213.339 394.333 213.339 450.657C213.339 466.05 213.339 481.494 213.339 496.887C213.339 498.149 215.357 498.149 215.357 496.887Z" fill="#1E272E"/>
<path d="M197.091 300.813C200.32 300.156 203.853 299.046 206.426 296.825C209.302 294.352 210.664 290.466 210.967 286.782C211.068 285.47 209.05 285.47 208.949 286.782C208.697 290.315 207.183 293.999 204.155 295.967C201.935 297.431 199.21 298.239 196.587 298.794C195.275 299.097 195.779 301.065 197.091 300.813Z" fill="#1E272E"/>
<path d="M209.908 287.791C211.22 287.791 212.532 287.791 213.844 287.791C215.155 287.791 215.155 285.772 213.844 285.772C212.532 285.772 211.22 285.772 209.908 285.772C208.596 285.772 208.596 287.791 209.908 287.791Z" fill="#1E272E"/>
<path d="M197.798 307.727C197.798 305.103 197.798 302.428 197.798 299.803C197.798 298.491 195.779 298.491 195.779 299.803C195.779 302.428 195.779 305.103 195.779 307.727C195.779 309.039 197.798 309.039 197.798 307.727Z" fill="#1E272E"/>
<path d="M203.298 312.875H190.279L184.628 321.455H208.999L203.298 312.875Z" fill="#1E272E"/>
<path d="M201.683 314.641H191.894V310.452C191.894 307.727 194.064 305.557 196.789 305.557C199.513 305.557 201.683 307.727 201.683 310.452V314.641Z" fill="#1E272E"/>
<path d="M184.628 321.454L189.22 340.935H204.357L208.999 321.454H184.628Z" fill="#80C2F2"/>
<path d="M195.779 319.84C195.779 326.855 195.779 333.921 195.779 340.936C195.779 342.248 197.798 342.248 197.798 340.936C197.798 333.921 197.798 326.855 197.798 319.84C197.798 318.527 195.779 318.527 195.779 319.84Z" fill="#1E272E"/>
<path d="M204.357 340.936H189.22V344.469H204.357V340.936Z" fill="#1E272E"/>
<path d="M1225.03 537.818H1218.93V495.221C1218.93 493.556 1220.29 492.143 1222.01 492.143C1223.67 492.143 1225.08 493.505 1225.08 495.221V537.818H1225.03Z" fill="#1E272E"/>
<path d="M1222.96 496.887C1222.96 440.563 1222.96 384.239 1222.96 327.915C1222.96 312.521 1222.96 297.078 1222.96 281.684C1222.96 280.372 1220.95 280.372 1220.95 281.684C1220.95 338.008 1220.95 394.333 1220.95 450.657C1220.95 466.05 1220.95 481.494 1220.95 496.887C1220.95 498.149 1222.96 498.149 1222.96 496.887Z" fill="#1E272E"/>
<path d="M1204.7 300.813C1207.93 300.156 1211.46 299.046 1214.03 296.825C1216.91 294.352 1218.27 290.466 1218.58 286.782C1218.68 285.47 1216.66 285.47 1216.56 286.782C1216.3 290.315 1214.79 293.999 1211.76 295.967C1209.54 297.431 1206.82 298.239 1204.19 298.794C1202.88 299.097 1203.44 301.065 1204.7 300.813Z" fill="#1E272E"/>
<path d="M1217.52 287.791C1218.83 287.791 1220.14 287.791 1221.45 287.791C1222.76 287.791 1222.76 285.772 1221.45 285.772C1220.14 285.772 1218.83 285.772 1217.52 285.772C1216.25 285.772 1216.25 287.791 1217.52 287.791Z" fill="#1E272E"/>
<path d="M1205.45 307.727C1205.45 305.103 1205.45 302.428 1205.45 299.803C1205.45 298.491 1203.44 298.491 1203.44 299.803C1203.44 302.428 1203.44 305.103 1203.44 307.727C1203.44 309.039 1205.45 309.039 1205.45 307.727Z" fill="#1E272E"/>
<path d="M1210.96 312.875H1197.94L1192.24 321.455H1216.61L1210.96 312.875Z" fill="#1E272E"/>
<path d="M1209.34 314.641H1199.55V310.452C1199.55 307.727 1201.72 305.557 1204.45 305.557C1207.17 305.557 1209.34 307.727 1209.34 310.452V314.641V314.641Z" fill="#1E272E"/>
<path d="M1192.24 321.454L1196.83 340.935H1212.02L1216.61 321.454H1192.24Z" fill="#80C2F2"/>
<path d="M1203.44 319.84C1203.44 326.855 1203.44 333.921 1203.44 340.936C1203.44 342.248 1205.45 342.248 1205.45 340.936C1205.45 333.921 1205.45 326.855 1205.45 319.84C1205.45 318.527 1203.44 318.527 1203.44 319.84Z" fill="#1E272E"/>
<path d="M1211.97 340.936H1196.83V344.469H1211.97V340.936Z" fill="#1E272E"/>
<path d="M1005.94 452.877H1001.8V423.958C1001.8 422.797 1002.71 421.889 1003.87 421.889C1005.03 421.889 1005.94 422.797 1005.94 423.958V452.877V452.877Z" fill="#1E272E"/>
<path d="M1004.53 431.226C1004.53 393.02 1004.53 354.815 1004.53 316.609C1004.53 306.162 1004.53 295.715 1004.53 285.268C1004.53 284.41 1003.17 284.41 1003.17 285.268C1003.17 323.473 1003.17 361.679 1003.17 399.884C1003.17 410.331 1003.17 420.779 1003.17 431.226C1003.17 432.084 1004.53 432.084 1004.53 431.226Z" fill="#1E272E"/>
<path d="M992.117 298.188C994.337 297.734 996.86 296.926 998.576 295.412C1000.44 293.746 1001.35 291.172 1001.5 288.75C1001.55 287.892 1000.19 287.892 1000.14 288.75C999.988 291.122 998.979 293.595 996.961 294.907C995.397 295.967 993.53 296.522 991.713 296.876C990.906 297.027 991.259 298.339 992.117 298.188Z" fill="#1E272E"/>
<path d="M1000.85 289.356C1001.75 289.356 1002.61 289.356 1003.52 289.356C1004.38 289.356 1004.38 287.993 1003.52 287.993C1002.61 287.993 1001.75 287.993 1000.85 287.993C999.989 287.993 999.989 289.356 1000.85 289.356Z" fill="#1E272E"/>
<path d="M992.621 302.882C992.621 301.065 992.621 299.298 992.621 297.481C992.621 296.623 991.259 296.623 991.259 297.481C991.259 299.298 991.259 301.065 991.259 302.882C991.259 303.79 992.621 303.79 992.621 302.882Z" fill="#1E272E"/>
<path d="M996.356 306.364H987.525L983.69 312.168H1000.24L996.356 306.364Z" fill="#1E272E"/>
<path d="M995.296 307.575H988.686V304.749C988.686 302.932 990.149 301.418 992.016 301.418C993.833 301.418 995.347 302.882 995.347 304.749V307.575H995.296Z" fill="#1E272E"/>
<path d="M983.69 312.168L986.819 325.441H997.112L1000.24 312.168H983.69Z" fill="#80C2F2"/>
<path d="M991.259 311.108C991.259 315.903 991.259 320.647 991.259 325.441C991.259 326.299 992.621 326.299 992.621 325.441C992.621 320.647 992.621 315.903 992.621 311.108C992.621 310.2 991.259 310.2 991.259 311.108Z" fill="#1E272E"/>
<path d="M997.112 325.441H986.819V327.813H997.112V325.441Z" fill="#1E272E"/>
<path d="M702.888 452.877H698.751V423.958C698.751 422.797 699.659 421.889 700.82 421.889C701.98 421.889 702.888 422.797 702.888 423.958V452.877V452.877Z" fill="#1E272E"/>
<path d="M701.525 431.226C701.525 393.02 701.525 354.815 701.525 316.609C701.525 306.162 701.525 295.715 701.525 285.268C701.525 284.41 700.164 284.41 700.164 285.268C700.164 323.473 700.164 361.679 700.164 399.884C700.164 410.331 700.164 420.779 700.164 431.226C700.164 432.084 701.525 432.084 701.525 431.226Z" fill="#1E272E"/>
<path d="M689.113 298.188C691.333 297.734 693.856 296.926 695.572 295.412C697.439 293.746 698.347 291.172 698.498 288.75C698.549 287.892 697.186 287.892 697.136 288.75C696.984 291.122 695.975 293.595 693.957 294.907C692.393 295.967 690.526 296.522 688.709 296.876C687.902 297.027 688.255 298.339 689.113 298.188Z" fill="#1E272E"/>
<path d="M697.842 289.356C698.751 289.356 699.609 289.356 700.517 289.356C701.375 289.356 701.375 287.993 700.517 287.993C699.609 287.993 698.751 287.993 697.842 287.993C696.934 287.993 696.934 289.356 697.842 289.356Z" fill="#1E272E"/>
<path d="M689.617 302.882C689.617 301.065 689.617 299.298 689.617 297.481C689.617 296.623 688.255 296.623 688.255 297.481C688.255 299.298 688.255 301.065 688.255 302.882C688.255 303.79 689.617 303.79 689.617 302.882Z" fill="#1E272E"/>
<path d="M693.352 306.364H684.521L680.687 312.168H697.187L693.352 306.364Z" fill="#1E272E"/>
<path d="M692.242 307.575H685.632V304.749C685.632 302.932 687.095 301.418 688.962 301.418C690.779 301.418 692.292 302.882 692.292 304.749V307.575H692.242Z" fill="#1E272E"/>
<path d="M680.687 312.168L683.815 325.441H694.058L697.187 312.168H680.687Z" fill="#80C2F2"/>
<path d="M688.255 311.108C688.255 315.903 688.255 320.647 688.255 325.441C688.255 326.299 689.617 326.299 689.617 325.441C689.617 320.647 689.617 315.903 689.617 311.108C689.617 310.2 688.255 310.2 688.255 311.108Z" fill="#1E272E"/>
<path d="M694.109 325.441H683.815V327.813H694.109V325.441Z" fill="#1E272E"/>
<defs>
<linearGradient id="paint0_linear" x1="959.997" y1="107.537" x2="959.997" y2="244.584" gradientUnits="userSpaceOnUse">
<stop stop-color="#CFDBFB"/>
<stop offset="1" stop-color="#ADAFB8"/>
</linearGradient>
<linearGradient id="paint1_linear" x1="444.919" y1="584.796" x2="1160.48" y2="584.796" gradientUnits="userSpaceOnUse">
<stop offset="1.2e-07" stop-color="#ADAFB8"/>
<stop offset="1" stop-color="#ADAFB8"/>
</linearGradient>
<linearGradient id="paint2_linear" x1="1748.51" y1="431.039" x2="1748.51" y2="401.229" gradientUnits="userSpaceOnUse">
<stop offset="1.2e-07" stop-color="#41704B"/>
<stop offset="1" stop-color="#41704B"/>
</linearGradient>
</defs>
</svg>
