<svg width="282" height="282" viewBox="0 0 282 282" fill="none" xmlns="http://www.w3.org/2000/svg">
<path d="M141.068 2.13672C83.0842 2.13672 66.1262 2.19654 62.8299 2.46999C50.9307 3.45913 43.5263 5.33272 35.4597 9.34908C29.243 12.4361 24.3402 16.0145 19.5015 21.0307C10.6893 30.1786 5.34853 41.433 3.41517 54.8109C2.4752 61.3054 2.20176 62.63 2.14621 95.8035C2.12485 106.861 2.14621 121.414 2.14621 140.934C2.14621 198.872 2.2103 215.814 2.48802 219.104C3.44936 230.683 5.26521 237.968 9.11055 245.936C16.4594 261.19 30.4949 272.641 47.0299 276.914C52.7551 278.388 59.0786 279.2 67.1965 279.584C70.636 279.734 105.693 279.841 140.771 279.841C175.849 279.841 210.927 279.798 214.281 279.627C223.68 279.185 229.139 278.452 235.174 276.892C251.815 272.598 265.595 261.318 273.093 245.851C276.864 238.075 278.776 230.512 279.641 219.537C279.829 217.145 279.908 178.996 279.908 140.898C279.908 102.794 279.822 64.7151 279.634 62.3224C278.758 51.1705 276.846 43.6719 272.954 35.746C269.76 29.2579 266.214 24.4126 261.066 19.4584C251.877 10.6822 240.64 5.34126 227.25 3.40999C220.762 2.47213 219.47 2.1944 186.272 2.13672H141.068Z" fill="url(#paint0_linear)"/>
<path d="M141.004 38.4541C113.155 38.4541 109.66 38.5759 98.7224 39.0736C87.8059 39.5736 80.3545 41.3019 73.8345 43.8377C67.0902 46.4569 61.3692 49.9606 55.6696 55.6625C49.9656 61.3623 46.4621 67.0835 43.8345 73.8259C41.2923 80.3482 39.5619 87.802 39.0705 98.7145C38.5813 109.653 38.4531 113.15 38.4531 141C38.4531 168.849 38.577 172.334 39.0727 183.272C39.5747 194.189 41.3029 201.64 43.8366 208.16C46.4578 214.905 49.9614 220.626 55.6631 226.326C61.3607 232.03 67.0817 235.542 73.8217 238.161C80.3459 240.697 87.7995 242.426 98.7138 242.925C109.652 243.423 113.145 243.545 140.991 243.545C168.842 243.545 172.326 243.423 183.264 242.925C194.181 242.426 201.641 240.697 208.165 238.161C214.907 235.542 220.62 232.03 226.317 226.326C232.021 220.626 235.525 214.905 238.152 208.163C240.673 201.64 242.403 194.186 242.916 183.274C243.408 172.336 243.536 168.849 243.536 141C243.536 113.15 243.408 109.655 242.916 98.7167C242.403 87.7998 240.673 80.3482 238.152 73.828C235.525 67.0835 232.021 61.3623 226.317 55.6625C220.613 49.9584 214.909 46.4548 208.159 43.8377C201.622 41.3019 194.166 39.5736 183.249 39.0736C172.311 38.5759 168.829 38.4541 140.972 38.4541H141.004ZM131.805 56.9336C134.535 56.9294 137.582 56.9336 141.004 56.9336C168.383 56.9336 171.628 57.0319 182.44 57.5233C192.438 57.9805 197.864 59.6511 201.478 61.0547C206.264 62.9133 209.675 65.1351 213.262 68.7242C216.851 72.3133 219.073 75.7315 220.936 80.517C222.339 84.1274 224.012 89.5538 224.467 99.552C224.958 110.362 225.065 113.609 225.065 140.976C225.065 168.343 224.958 171.59 224.467 182.4C224.01 192.398 222.339 197.825 220.936 201.435C219.077 206.221 216.851 209.628 213.262 213.215C209.673 216.804 206.266 219.026 201.478 220.885C197.868 222.295 192.438 223.961 182.44 224.418C171.63 224.91 168.383 225.016 141.004 225.016C113.623 225.016 110.378 224.91 99.5684 224.418C89.5705 223.957 84.1443 222.286 80.5275 220.882C75.7422 219.024 72.3241 216.802 68.7352 213.213C65.1462 209.624 62.9244 206.214 61.0616 201.427C59.658 197.816 57.9853 192.39 57.5303 182.392C57.0389 171.582 56.9407 168.334 56.9407 140.95C56.9407 113.567 57.0389 110.336 57.5303 99.5263C57.9874 89.5282 59.658 84.1018 61.0616 80.4871C62.9202 75.7016 65.1462 72.2834 68.7352 68.6943C72.3241 65.1052 75.7422 62.8834 80.5275 61.0205C84.1421 59.6105 89.5705 57.9442 99.5684 57.4848C109.028 57.0576 112.694 56.9294 131.805 56.908V56.9336ZM195.74 73.9605C188.947 73.9605 183.435 79.4659 183.435 86.2616C183.435 93.0553 188.947 98.5671 195.74 98.5671C202.534 98.5671 208.045 93.0553 208.045 86.2616C208.045 79.468 202.534 73.9562 195.74 73.9562V73.9605ZM141.004 88.3382C111.923 88.3382 88.3442 111.917 88.3442 141C88.3442 170.082 111.923 193.65 141.004 193.65C170.085 193.65 193.655 170.082 193.655 141C193.655 111.917 170.083 88.3382 141.002 88.3382H141.004ZM141.004 106.818C159.88 106.818 175.185 122.121 175.185 141C175.185 159.876 159.88 175.181 141.004 175.181C122.126 175.181 106.823 159.876 106.823 141C106.823 122.121 122.126 106.818 141.004 106.818V106.818Z" fill="white"/>
<defs>
<linearGradient id="paint0_linear" x1="-9.30092" y1="239.66" x2="379.547" y2="122.316" gradientUnits="userSpaceOnUse">
<stop stop-color="#6F40FF"/>
<stop offset="1" stop-color="#C240FF"/>
</linearGradient>
</defs>
</svg>
