<svg width="212" height="69" viewBox="0 0 212 69" fill="none" xmlns="http://www.w3.org/2000/svg">
<g clip-path="url(#clip0_189_161)">
<path d="M30.7634 34.9488V69L60.4749 51.9745V17.9234L30.7634 34.9488Z" fill="#B2FFB0"/>
<path d="M45.0277 47.719C45.2222 47.4183 45.4202 47.1153 45.6136 46.8101C45.8102 46.5083 46.007 46.2062 46.205 45.9032C46.0512 45.8549 45.8997 45.809 45.7481 45.7596C45.5932 45.7113 45.4406 45.6629 45.2911 45.6137C45.1361 45.5654 44.9846 45.516 44.8331 45.4679C44.677 45.4184 44.5266 45.3701 44.374 45.3173C44.5244 45.0862 44.6782 44.8549 44.8331 44.6248C44.9824 44.3915 45.135 44.1602 45.2911 43.929C45.4417 43.699 45.5955 43.4678 45.7481 43.2354C45.8997 43.0054 46.0501 42.7753 46.205 42.5451C46.007 42.4791 45.8113 42.4094 45.6159 42.3422C45.419 42.2736 45.2222 42.2051 45.0288 42.1368C44.901 42.3264 44.7719 42.5173 44.6476 42.7081C44.5199 42.8976 44.3944 43.0895 44.2687 43.2814C44.1432 43.4723 44.0154 43.6631 43.8866 43.8528C43.7631 44.0447 43.6377 44.2366 43.511 44.4275C43.3842 44.6203 43.2599 44.81 43.1298 45.0031C43.0078 45.1961 42.8809 45.3869 42.7543 45.5778C42.6277 45.7708 42.4988 45.9628 42.3754 46.1558C42.2476 46.3476 42.121 46.5406 41.9942 46.7326C42.2443 46.8191 42.4988 46.902 42.7532 46.9874C43.0078 47.0715 43.2542 47.1524 43.5099 47.2365C43.7654 47.3196 44.0154 47.4003 44.2698 47.4823C44.5221 47.5619 44.7742 47.6417 45.0277 47.719ZM49.0688 45.2501C49.1943 45.0604 49.3209 44.8673 49.4466 44.6754C49.5743 44.4846 49.6998 44.2926 49.8264 44.0995C49.9521 43.9112 50.0787 43.7193 50.2053 43.5284C50.3308 43.3365 50.4554 43.1468 50.5854 42.9549C50.7109 42.7652 50.8366 42.5744 50.9598 42.3824C51.0876 42.1941 51.2153 42.0032 51.3421 41.8136C51.4676 41.6239 51.5942 41.433 51.7197 41.2434C51.8465 41.0537 51.9709 40.8651 52.0998 40.6765C51.842 40.6026 51.592 40.5295 51.341 40.4511C51.0876 40.378 50.8366 40.3027 50.5854 40.2266C50.3297 40.1501 50.0787 40.0739 49.8253 39.9942C49.5721 39.918 49.3198 39.8393 49.0688 39.7597C48.8731 40.056 48.6751 40.3522 48.4795 40.6518C48.2815 40.9505 48.0869 41.2478 47.8915 41.5463C48.043 41.5946 48.1945 41.6418 48.3472 41.6899C48.4987 41.7394 48.6536 41.7855 48.8063 41.8327C48.9578 41.8819 49.1084 41.9268 49.2634 41.9729C49.4149 42.019 49.5675 42.0671 49.7213 42.112C49.5664 42.3399 49.4149 42.5721 49.2611 42.8023C49.1107 43.0313 48.9578 43.2623 48.8063 43.4936C48.6502 43.7238 48.4987 43.9548 48.3472 44.1861C48.1957 44.4185 48.0419 44.6495 47.8915 44.8819C48.0858 44.9437 48.2804 45.0076 48.4783 45.066C48.6763 45.1278 48.8731 45.1905 49.0688 45.2501ZM41.1528 54.2947C40.9199 54.4363 40.705 54.5316 40.507 54.5754C40.3091 54.6224 40.1304 54.619 39.9641 54.5642C39.7979 54.5102 39.6735 54.4149 39.592 54.2801C39.5095 54.1432 39.4722 53.967 39.4722 53.7517C39.4722 53.5204 39.4722 53.2903 39.4722 53.0603C39.4722 52.8291 39.4722 52.6 39.4722 52.369C39.4722 52.14 39.4722 51.9087 39.4722 51.6788C39.4722 51.4486 39.4722 51.2196 39.4722 50.9874C39.4722 50.7584 39.4722 50.526 39.4722 50.2983C39.4722 50.067 39.4722 49.8369 39.4722 49.607C39.4722 49.3768 39.4722 49.1455 39.4722 48.9145C39.4722 48.6866 39.4722 48.4553 39.4722 48.2254C39.4722 47.9952 39.4722 47.764 39.4722 47.534C39.4722 47.3039 39.4722 47.0749 39.4722 46.8449C39.4722 46.6137 39.4722 46.3835 39.4722 46.1536C39.4722 45.9246 39.4722 45.691 39.4722 45.4634C39.4722 45.2321 39.4722 45.0019 39.4722 44.772C39.4722 44.5419 39.4722 44.3106 39.4722 44.0807C39.4722 43.8494 39.4722 43.6215 39.4722 43.3916C39.4722 43.1603 39.4722 42.9324 39.4722 42.7013C39.4722 42.4824 39.5107 42.2601 39.5909 42.0255C39.6747 41.7911 39.7956 41.5497 39.9619 41.3007C40.1292 41.0514 40.3102 40.8336 40.507 40.6451C40.7072 40.4545 40.9211 40.2917 41.1494 40.1614C41.3949 40.0223 41.6425 39.882 41.8891 39.7418C42.1358 39.6026 42.3811 39.461 42.6254 39.3242C42.8719 39.185 43.114 39.0437 43.3618 38.9034C43.6082 38.7652 43.8515 38.6261 44.1013 38.4836C44.3457 38.3445 44.5921 38.2042 44.8365 38.0637C45.082 37.9246 45.3284 37.7832 45.574 37.643C45.8193 37.5016 46.0625 37.3602 46.3092 37.2209C46.5556 37.0806 46.8023 36.9382 47.0464 36.799C47.2931 36.6565 47.5375 36.5161 47.7782 36.3758C48.0305 36.2333 48.2758 36.0919 48.5225 35.9506C48.7666 35.8092 49.0122 35.6665 49.2566 35.5251C49.5041 35.3837 49.7474 35.2412 49.9961 35.101C50.2393 34.9583 50.4848 34.8169 50.7313 34.6744C50.9757 34.5308 51.2232 34.3894 51.4687 34.2481C51.7109 34.1076 51.9584 33.9651 52.2062 33.8215C52.4515 33.679 52.697 33.5365 52.9435 33.394C53.1743 33.2614 53.3881 33.1739 53.5872 33.1312C53.7851 33.0964 53.9672 33.1009 54.1323 33.147C54.2963 33.1975 54.4161 33.2872 54.5031 33.414C54.5846 33.5432 54.6265 33.7082 54.6231 33.9125C54.6243 34.1312 54.6243 34.3512 54.6231 34.569C54.6243 34.7854 54.6254 35.0021 54.6231 35.2199C54.6243 35.4366 54.6277 35.6552 54.6265 35.8719C54.6209 36.0919 54.6265 36.3097 54.6209 36.5284C54.6231 36.7451 54.6265 36.9629 54.6265 37.1807C54.6243 37.3994 54.6265 37.6183 54.6243 37.8361C54.6265 38.0527 54.6231 38.2737 54.6243 38.4892C54.6254 38.707 54.6243 38.9257 54.6265 39.1435C54.6243 39.3612 54.6265 39.5802 54.6254 39.7966C54.6243 40.0155 54.6231 40.2333 54.6265 40.45C54.6231 40.6687 54.6231 40.8864 54.6231 41.1042C54.6277 41.3231 54.622 41.5396 54.622 41.7596C54.6231 41.9774 54.6265 42.1952 54.622 42.4139C54.6254 42.6305 54.6243 42.8495 54.622 43.067C54.6277 43.2848 54.6243 43.5026 54.6277 43.7215C54.6231 43.9379 54.6243 44.158 54.6243 44.3758C54.6243 44.5812 54.5846 44.7965 54.5008 45.0244C54.4161 45.2534 54.2929 45.4924 54.1312 45.7405C53.9638 45.9909 53.7828 46.2129 53.586 46.4127C53.3847 46.6103 53.1743 46.7831 52.9412 46.9279C52.6959 47.0839 52.4504 47.2376 52.2051 47.3936C51.9573 47.5495 51.712 47.7046 51.4687 47.8606C51.2232 48.0143 50.9768 48.1714 50.7313 48.3263C50.4837 48.4823 50.2393 48.6383 49.9949 48.7909C49.7485 48.9469 49.503 49.1017 49.2588 49.2568C49.011 49.4116 48.7644 49.5687 48.5214 49.7202C48.2702 49.874 48.0294 50.0288 47.785 50.1826C47.5375 50.3363 47.2908 50.49 47.0464 50.644C46.8023 50.7966 46.5545 50.9514 46.3114 51.1041C46.0625 51.2555 45.8181 51.4104 45.5728 51.563C45.3273 51.7145 45.082 51.8682 44.8365 52.0199C44.5921 52.1714 44.3457 52.324 44.1002 52.4755C43.8537 52.6281 43.6093 52.7807 43.3652 52.9322C43.1174 53.0837 42.8696 53.2365 42.6243 53.3869C42.3811 53.5384 42.1369 53.6899 41.8902 53.8402C41.6402 53.9928 41.396 54.1443 41.1528 54.2947Z" fill="#6CAA6B"/>
<path d="M0 51.9745L29.7228 69V34.9488L0 17.9234V51.9745Z" fill="#B4E4FF"/>
<path d="M30.243 0L0.520264 17.0255L30.243 34.0512L59.9545 17.0255L30.243 0Z" fill="#FEBB02"/>
<path d="M8.46366 49.1064C8.71475 49.4454 9.01785 49.7362 9.36506 49.9729C9.53924 50.0908 9.72474 50.1963 9.91925 50.2859C10.1138 50.3758 10.3185 50.4498 10.5311 50.5082C10.8433 50.5936 11.1724 50.644 11.514 50.6608C11.8555 50.6777 12.2107 50.6597 12.5737 50.6091C12.7558 50.5835 12.9402 50.5498 13.1257 50.5082C13.3123 50.4655 13.5 50.4152 13.6889 50.3567C13.8789 50.2983 14.0689 50.2311 14.2612 50.1569C14.4523 50.0819 14.6457 49.9987 14.8391 49.9079C15.0314 50.0996 15.2237 50.2837 15.4159 50.461C15.6071 50.6384 15.7982 50.8078 15.9871 50.9694C16.176 51.131 16.3649 51.285 16.5503 51.4297C16.737 51.5745 16.9202 51.7113 17.1023 51.8381C17.4665 52.0918 17.8205 52.3074 18.162 52.4813C18.5036 52.6564 18.8327 52.7877 19.1449 52.8729C19.3575 52.9313 19.5622 52.9673 19.7568 52.9808C19.9513 52.9942 20.1368 52.9853 20.3109 52.9538C20.6582 52.8886 20.9624 52.7326 21.2124 52.4858C21.4408 52.2591 21.6172 51.9673 21.7428 51.6183C21.8695 51.2681 21.9441 50.8595 21.969 50.4017C21.9803 50.1727 21.9803 49.9301 21.9667 49.6777C21.9532 49.424 21.9272 49.1592 21.8876 48.8832C21.8491 48.6081 21.7971 48.3209 21.7326 48.0244C21.6682 47.7293 21.5901 47.423 21.5008 47.1077C21.3718 46.662 21.2191 46.2041 21.0438 45.7396C20.9568 45.5083 20.864 45.2748 20.7656 45.0404C20.6672 44.8057 20.5643 44.5713 20.4568 44.3355C20.5598 44.1515 20.6593 43.9629 20.7543 43.7698C20.8493 43.5779 20.9409 43.3814 21.0269 43.1807C21.1139 42.9809 21.1977 42.7766 21.2768 42.5689C21.3549 42.3613 21.4295 42.1505 21.4996 41.936C21.5901 41.6531 21.6682 41.3748 21.7326 41.1022C21.7971 40.8282 21.8491 40.5612 21.8876 40.2985C21.9272 40.0371 21.9532 39.7811 21.9667 39.5332C21.9792 39.2839 21.9803 39.0428 21.9679 38.8092C21.9441 38.3424 21.8683 37.908 21.7428 37.5117C21.6161 37.1191 21.4397 36.7644 21.2124 36.4569C20.9635 36.1212 20.6593 35.8575 20.3109 35.6689C20.1379 35.5748 19.9524 35.4995 19.7579 35.4433C19.5622 35.3885 19.3575 35.3514 19.1449 35.3345C18.8327 35.3087 18.5036 35.3233 18.162 35.375C17.8216 35.4267 17.4665 35.5152 17.1034 35.6397C16.9213 35.7015 16.737 35.7723 16.5515 35.8508C16.3649 35.9283 16.1771 36.0146 15.9882 36.109C15.7982 36.2032 15.6082 36.3052 15.4159 36.4142C15.2248 36.523 15.0314 36.6385 14.8391 36.7622C14.6457 36.6017 14.4523 36.4502 14.2612 36.3064C14.0689 36.1627 13.8789 36.0281 13.6889 35.9025C13.5 35.7755 13.3123 35.6588 13.1257 35.5501C12.9402 35.441 12.7558 35.3435 12.5737 35.2527C12.2107 35.072 11.8555 34.9282 11.514 34.8227C11.1724 34.7173 10.8433 34.651 10.5311 34.6241C10.3185 34.6072 10.1149 34.6083 9.92039 34.6286C9.72474 34.6488 9.54037 34.687 9.3662 34.7441C9.01898 34.8565 8.71475 35.0394 8.46366 35.2896C8.23746 35.513 8.06102 35.7822 7.93436 36.0933C7.80881 36.403 7.73303 36.7543 7.70927 37.146C7.69797 37.3411 7.69797 37.5454 7.7104 37.761C7.72399 37.9754 7.74999 38.1997 7.78845 38.4321C7.82804 38.6656 7.87894 38.9079 7.9434 39.1594C8.00786 39.4096 8.08591 39.67 8.17639 39.9382C8.30531 40.3187 8.45799 40.7104 8.63217 41.1101C8.71926 41.3096 8.81314 41.5117 8.9104 41.716C9.00881 41.9203 9.11173 42.1257 9.21918 42.3321C9.11626 42.4905 9.01785 42.651 8.92172 42.8148C8.82671 42.9776 8.73622 43.1436 8.648 43.3131C8.56094 43.4815 8.47836 43.6532 8.3992 43.8271C8.32115 44 8.24652 44.1773 8.17639 44.3558C8.08591 44.5913 8.00786 44.8237 7.9434 45.0516C7.87894 45.2793 7.82804 45.5027 7.78845 45.7227C7.74999 45.9416 7.72399 46.1558 7.7104 46.3657C7.69797 46.5757 7.69797 46.7811 7.70927 46.9809C7.73303 47.3803 7.80881 47.7597 7.93436 48.1132C8.06102 48.469 8.23746 48.8023 8.46366 49.1064ZM20.1628 47.4814C20.2861 47.9067 20.3788 48.3085 20.4421 48.6801C20.5055 49.0505 20.5383 49.3905 20.5417 49.6912C20.5451 49.992 20.5179 50.2536 20.4614 50.47C20.4037 50.6855 20.3166 50.855 20.2001 50.9717C19.9705 51.1984 19.6154 51.2513 19.1449 51.1299C18.9356 51.0762 18.7128 50.9919 18.4776 50.8786C18.2435 50.7653 17.998 50.6237 17.7436 50.4576C17.4891 50.2904 17.2256 50.0985 16.9553 49.8843C16.6861 49.6699 16.4101 49.433 16.1307 49.1772C16.2902 49.0693 16.4486 48.9572 16.6046 48.8417C16.7607 48.7248 16.9157 48.6048 17.0672 48.4802C17.2188 48.3557 17.3692 48.2265 17.5162 48.093C17.6633 47.9595 17.8092 47.8215 17.9517 47.6799C18.0953 47.5374 18.2355 47.3915 18.3747 47.2412C18.5126 47.0908 18.6484 46.936 18.783 46.7777C18.9164 46.6184 19.0476 46.4556 19.1765 46.2896C19.3055 46.1223 19.4321 45.9515 19.5554 45.7778C19.6764 46.0673 19.7884 46.3556 19.8902 46.6397C19.9909 46.9247 20.0825 47.2063 20.1628 47.4814ZM14.838 47.8763C14.6503 47.6756 14.4659 47.4724 14.2849 47.2659C14.104 47.0605 13.9264 46.8517 13.7511 46.6408C13.5758 46.4309 13.4028 46.2176 13.2342 46.0021C13.0646 45.7877 12.8995 45.5712 12.7366 45.3523C12.5726 45.1323 12.4131 44.9113 12.2571 44.6879C12.101 44.4657 11.9472 44.2411 11.799 44.0146C11.6486 43.7889 11.5038 43.561 11.3613 43.3311C11.2188 43.1032 11.0808 42.8719 10.9462 42.6397C11.0808 42.4557 11.2188 42.275 11.3613 42.0976C11.5027 41.9192 11.6486 41.7441 11.7979 41.5713C11.9472 41.3984 12.0998 41.229 12.2559 41.0629C12.412 40.8956 12.5715 40.7318 12.7332 40.5713C12.8961 40.4097 13.0623 40.2526 13.232 40.0975C13.4005 39.9427 13.5735 39.7912 13.7488 39.6431C13.9242 39.4938 14.1029 39.3491 14.2838 39.2077C14.4659 39.065 14.6503 38.927 14.838 38.7924C15.0246 38.972 15.209 39.156 15.3899 39.3446C15.5709 39.5332 15.7496 39.7274 15.9249 39.9258C16.1002 40.1256 16.2721 40.3299 16.4418 40.5387C16.6103 40.7475 16.7765 40.9617 16.9394 41.1806C17.1023 41.4007 17.2617 41.6252 17.4178 41.8529C17.575 42.0819 17.7277 42.3154 17.877 42.5521C18.0263 42.7901 18.1722 43.0324 18.3147 43.2783C18.4572 43.5242 18.5952 43.7743 18.7298 44.0281C18.5952 44.2333 18.4572 44.4342 18.3147 44.6295C18.1722 44.8237 18.0274 45.0134 17.8782 45.1986C17.7289 45.3815 17.5762 45.56 17.4201 45.734C17.264 45.9057 17.1045 46.0729 16.9417 46.2334C16.7788 46.3938 16.6125 46.5487 16.444 46.6991C16.2744 46.8472 16.1025 46.9897 15.9272 47.1279C15.7507 47.2636 15.5732 47.3949 15.3911 47.5194C15.209 47.6442 15.0246 47.7631 14.838 47.8763ZM19.1449 37.0741C19.6154 37.1213 19.9694 37.3009 20.2001 37.6084C20.3166 37.7677 20.4037 37.9675 20.4614 38.2042C20.5179 38.44 20.5451 38.7115 20.5428 39.0113C20.5394 39.3109 20.5055 39.6386 20.4421 39.9865C20.3788 40.3355 20.2861 40.7037 20.1628 41.0865C20.0825 41.3332 19.9909 41.5814 19.8902 41.8293C19.7884 42.0774 19.6764 42.3255 19.5566 42.5734C19.4321 42.3545 19.3055 42.1392 19.1765 41.9259C19.0487 41.7126 18.9164 41.5038 18.783 41.2962C18.6495 41.091 18.5138 40.8866 18.3747 40.6868C18.2367 40.487 18.0964 40.2906 17.9528 40.0975C17.8103 39.9047 17.6644 39.715 17.5173 39.5287C17.3692 39.3435 17.2199 39.1605 17.0672 38.9821C16.9157 38.8036 16.7618 38.6285 16.6058 38.4557C16.4486 38.2851 16.2902 38.1168 16.1296 37.9518C16.4101 37.7958 16.6861 37.6578 16.9553 37.5398C17.2256 37.4209 17.4891 37.3234 17.7436 37.247C17.998 37.1705 18.2435 37.1179 18.4776 37.0876C18.7128 37.0584 18.9356 37.0528 19.1449 37.0741ZM9.51324 39.5835C9.38996 39.2156 9.29721 38.8677 9.23275 38.5465C9.16942 38.2255 9.1366 37.9316 9.13322 37.669C9.12983 37.4052 9.15696 37.1739 9.21465 36.9788C9.27121 36.7835 9.35943 36.6242 9.47591 36.5073C9.70551 36.2796 10.0595 36.1875 10.5311 36.2358C10.7404 36.256 10.9632 36.3041 11.1973 36.376C11.4325 36.4491 11.678 36.5466 11.9325 36.6678C12.1869 36.7891 12.4505 36.935 12.7196 37.1022C12.9899 37.2706 13.2659 37.4614 13.5464 37.6722C13.3858 37.7969 13.2263 37.9248 13.0702 38.055C12.9142 38.1853 12.7592 38.3166 12.6077 38.4512C12.4561 38.5847 12.3057 38.7216 12.1587 38.8598C12.0105 38.9978 11.8657 39.1381 11.7221 39.2805C11.5784 39.4219 11.4382 39.5658 11.3002 39.7116C11.1611 39.8575 11.0254 40.0045 10.8919 40.1548C10.7585 40.303 10.6261 40.4544 10.4983 40.6082C10.3694 40.761 10.2427 40.9159 10.1183 41.073C10.003 40.8282 9.89552 40.5826 9.79486 40.3344C9.69305 40.0863 9.60033 39.8361 9.51324 39.5835ZM9.51437 45.1874C9.59353 44.9763 9.68515 44.7653 9.7858 44.5533C9.88759 44.34 9.99957 44.1267 10.1195 43.9146C10.2427 44.1155 10.3694 44.3153 10.4983 44.514C10.6273 44.7127 10.7585 44.9114 10.8919 45.1076C11.0254 45.3051 11.1611 45.5004 11.3002 45.6957C11.4382 45.8911 11.5796 46.0852 11.7221 46.2772C11.8657 46.47 12.0105 46.662 12.1587 46.8528C12.3057 47.0436 12.4561 47.2333 12.6077 47.4219C12.7592 47.6104 12.9142 47.7968 13.0702 47.982C13.2263 48.1683 13.3858 48.3524 13.5464 48.5353C13.2659 48.6463 12.9899 48.7383 12.7196 48.8102C12.4505 48.8821 12.1869 48.9336 11.9325 48.9639C11.678 48.9943 11.4325 49.0044 11.1973 48.9931C10.9632 48.9819 10.7404 48.9504 10.5323 48.8965C10.0618 48.7765 9.70551 48.5587 9.47704 48.2478C9.35829 48.0896 9.27121 47.8999 9.21465 47.6844C9.15696 47.4691 9.12983 47.2277 9.13322 46.9663C9.1366 46.7036 9.16942 46.4219 9.23275 46.1235C9.29721 45.8248 9.38996 45.5117 9.51437 45.1874Z" fill="#789BCE"/>
<path d="M14.8282 45.0431C15.0827 45.1105 15.3247 45.1229 15.5453 45.0869C15.7658 45.0509 15.9649 44.968 16.1311 44.8455C16.2985 44.7232 16.4331 44.5605 16.5259 44.3652C16.6197 44.1699 16.6706 43.9422 16.6706 43.6873C16.6718 43.4327 16.6197 43.1756 16.5259 42.9277C16.4331 42.6784 16.2985 42.4393 16.1311 42.2217C15.9638 42.005 15.7658 41.8086 15.5453 41.6481C15.3247 41.4865 15.0827 41.3598 14.8282 41.2822C14.5726 41.2049 14.3306 41.1836 14.11 41.2126C13.8884 41.2418 13.6904 41.3216 13.523 41.4438C13.3568 41.5661 13.2211 41.7322 13.1283 41.9342C13.0344 42.1352 12.9836 42.3721 12.9824 42.6368C12.9824 42.9018 13.0344 43.1677 13.1283 43.4237C13.2211 43.6784 13.3568 43.9209 13.523 44.1387C13.6904 44.3562 13.8884 44.5482 14.11 44.703C14.3306 44.8579 14.5726 44.9759 14.8282 45.0431Z" fill="#789BCE"/>
<path d="M31.0159 12.9572C33.2084 14.3432 35.4009 15.7209 37.5933 17.0904C37.9671 17.3242 38.1868 17.6388 38.2003 17.9715C38.2185 18.3064 38.0305 18.6255 37.6794 18.866C36.5016 19.6706 35.3245 20.4782 34.1483 21.2889C33.7973 21.5338 33.3126 21.6754 32.7962 21.6822C32.2843 21.6912 31.7882 21.5676 31.4123 21.3338C30.3235 20.6566 29.2341 19.977 28.1439 19.2953C26.4287 19.1529 24.7125 19.0098 22.9957 18.866C22.8779 18.857 22.7647 18.8233 22.6695 18.7738C22.5767 18.7244 22.5042 18.657 22.4634 18.5806C22.4204 18.5064 22.4113 18.4255 22.4385 18.3468C22.4612 18.2704 22.5155 18.1985 22.5971 18.1423C23.1875 17.7302 23.7771 17.3189 24.366 16.9084C24.1191 16.751 23.9719 16.533 23.9606 16.306C23.9492 16.079 24.0761 15.8588 24.3094 15.6969C25.6337 14.7814 26.9578 13.8697 28.2821 12.9617C28.6332 12.7212 29.1179 12.5863 29.632 12.5863C30.1439 12.5863 30.6422 12.7189 31.0159 12.9572ZM31.7429 18.6367C31.9921 18.7941 32.3228 18.8772 32.6625 18.875C33.0045 18.8682 33.3307 18.7761 33.564 18.6165C33.7995 18.4547 33.9241 18.2412 33.9105 18.0164C33.9037 17.7939 33.7565 17.5804 33.5051 17.4253C33.2582 17.2702 32.9253 17.1826 32.5832 17.1871C32.2412 17.1893 31.9196 17.2815 31.6863 17.4433C31.4508 17.6029 31.3239 17.8186 31.333 18.0434C31.3443 18.2681 31.4938 18.4817 31.7429 18.6367ZM28.9231 16.8679C29.1722 17.0252 29.5052 17.1107 29.8472 17.1084C30.1869 17.1062 30.5108 17.014 30.7464 16.8522C30.9797 16.6904 31.1042 16.4746 31.0952 16.2498C31.0816 16.0251 30.9366 15.8116 30.6852 15.6542C30.4383 15.4969 30.1077 15.4093 29.7634 15.4115C29.4236 15.4137 29.0997 15.5059 28.8665 15.6655C28.6332 15.8273 28.5063 16.0431 28.5177 16.2701C28.529 16.4948 28.6739 16.7106 28.9231 16.8679Z" fill="#AC7200"/>
<path d="M78.379 43.5062H85.6201V46.9739H73.9714V25.1677H78.379V43.5062ZM104.635 37.9453C104.635 38.5701 104.593 39.1324 104.509 39.6323H91.7588C91.8637 40.8819 92.3045 41.8608 93.0811 42.569C93.8575 43.2772 94.8127 43.6312 95.946 43.6312C97.5832 43.6312 98.748 42.9335 99.4407 41.538H104.195C103.691 43.2041 102.725 44.5787 101.298 45.6618C99.8708 46.724 98.1184 47.2551 96.0405 47.2551C94.3613 47.2551 92.8501 46.8906 91.507 46.1617C90.1847 45.4119 89.1457 44.36 88.3902 43.0063C87.6554 41.6526 87.2882 40.0906 87.2882 38.3202C87.2882 36.5291 87.6554 34.9565 88.3902 33.6028C89.1247 32.2491 90.1532 31.2076 91.4755 30.4787C92.7978 29.7498 94.3194 29.3852 96.0405 29.3852C97.6985 29.3852 99.1781 29.7392 100.48 30.4474C101.802 31.1556 102.82 32.1657 103.533 33.4778C104.268 34.769 104.635 36.2583 104.635 37.9453ZM100.07 36.6956C100.049 35.571 99.64 34.6753 98.8425 34.0089C98.0448 33.3216 97.0688 32.978 95.9146 32.978C94.8231 32.978 93.8997 33.3113 93.1441 33.9777C92.4093 34.6234 91.9581 35.5294 91.7903 36.6956H100.07ZM106.719 38.2577C106.719 36.5082 107.065 34.9565 107.758 33.6028C108.472 32.2491 109.427 31.2076 110.623 30.4787C111.84 29.7498 113.194 29.3852 114.684 29.3852C115.985 29.3852 117.119 29.6455 118.084 30.1663C119.071 30.687 119.858 31.3431 120.446 32.1344V29.6664H124.885V46.9739H120.446V44.4434C119.879 45.2557 119.092 45.9326 118.084 46.4741C117.098 46.9948 115.954 47.2551 114.653 47.2551C113.184 47.2551 111.84 46.8802 110.623 46.1304C109.427 45.3806 108.472 44.3288 107.758 42.9751C107.065 41.6005 106.719 40.0281 106.719 38.2577ZM120.446 38.3202C120.446 37.258 120.236 36.352 119.816 35.6022C119.396 34.8315 118.83 34.2485 118.116 33.8527C117.402 33.4362 116.636 33.2279 115.818 33.2279C114.999 33.2279 114.244 33.4257 113.551 33.8215C112.858 34.2173 112.292 34.8003 111.851 35.571C111.431 36.3207 111.221 37.2164 111.221 38.2577C111.221 39.299 111.431 40.2155 111.851 41.0069C112.292 41.7776 112.858 42.3712 113.551 42.7876C114.265 43.2041 115.02 43.4125 115.818 43.4125C116.636 43.4125 117.402 43.2147 118.116 42.8189C118.83 42.4024 119.396 41.8192 119.816 41.0694C120.236 40.2987 120.446 39.3824 120.446 38.3202ZM133.597 32.3531C134.164 31.4368 134.898 30.7183 135.801 30.1975C136.724 29.6767 137.774 29.4165 138.949 29.4165V34.0089H137.784C136.399 34.0089 135.35 34.3317 134.636 34.9774C133.943 35.6231 133.597 36.7478 133.597 38.3514V46.9739H129.19V29.6664H133.597V32.3531ZM151.583 29.4165C153.661 29.4165 155.34 30.0725 156.62 31.3847C157.901 32.6759 158.541 34.4879 158.541 36.8206V46.9739H154.133V37.4142C154.133 36.0396 153.787 34.9877 153.094 34.2588C152.402 33.5091 151.457 33.1342 150.261 33.1342C149.044 33.1342 148.078 33.5091 147.364 34.2588C146.672 34.9877 146.325 36.0396 146.325 37.4142V46.9739H141.918V29.6664H146.325V31.822C146.913 31.0723 147.658 30.489 148.561 30.0725C149.484 29.6352 150.492 29.4165 151.583 29.4165ZM178.946 37.9453C178.946 38.5701 178.904 39.1324 178.82 39.6323H166.07C166.174 40.8819 166.615 41.8608 167.392 42.569C168.168 43.2772 169.123 43.6312 170.257 43.6312C171.894 43.6312 173.059 42.9335 173.751 41.538H178.505C178.002 43.2041 177.036 44.5787 175.609 45.6618C174.182 46.724 172.429 47.2551 170.351 47.2551C168.672 47.2551 167.161 46.8906 165.818 46.1617C164.495 45.4119 163.457 44.36 162.701 43.0063C161.966 41.6526 161.599 40.0906 161.599 38.3202C161.599 36.5291 161.966 34.9565 162.701 33.6028C163.435 32.2491 164.464 31.2076 165.786 30.4787C167.109 29.7498 168.63 29.3852 170.351 29.3852C172.009 29.3852 173.489 29.7392 174.79 30.4474C176.113 31.1556 177.13 32.1657 177.844 33.4778C178.579 34.769 178.946 36.2583 178.946 37.9453ZM174.381 36.6956C174.36 35.571 173.951 34.6753 173.153 34.0089C172.356 33.3216 171.38 32.978 170.225 32.978C169.134 32.978 168.21 33.3113 167.455 33.9777C166.72 34.6234 166.269 35.5294 166.101 36.6956H174.381ZM186.571 32.3531C187.138 31.4368 187.872 30.7183 188.775 30.1975C189.698 29.6767 190.747 29.4165 191.923 29.4165V34.0089H190.758C189.373 34.0089 188.323 34.3317 187.61 34.9774C186.917 35.6231 186.571 36.7478 186.571 38.3514V46.9739H182.163V29.6664H186.571V32.3531ZM211.578 29.6664L200.779 55.1591H196.088L199.866 46.5366L192.877 29.6664H197.82L202.322 41.7567L206.887 29.6664H211.578Z" fill="black"/>
</g>
<defs>
<clipPath id="clip0_189_161">
<rect width="212" height="69" fill="white"/>
</clipPath>
</defs>
</svg>
