<svg viewBox="0 0 138 20" fill="none" xmlns="http://www.w3.org/2000/svg">
    <path d="M64.8903 12.3909V0.339475H72.7719V1.39185H66.0742V5.82201H71.7233V6.80648H66.0742V12.3909H64.8903ZM74.6131 1.69738V0H75.7632V1.69738H74.6131ZM74.6131 12.3909V3.54752H75.7632V12.3909H74.6131ZM81.1886 12.5606C80.467 12.5606 79.7961 12.4418 79.1759 12.2041C78.5671 11.9552 78.0315 11.5931 77.5692 11.1178L78.0427 10.3031C78.5389 10.767 79.035 11.1065 79.5311 11.3215C80.0385 11.5252 80.5741 11.627 81.1379 11.627C81.8144 11.627 82.3669 11.4912 82.7954 11.2197C83.2351 10.9368 83.455 10.5351 83.455 10.0145C83.455 9.66374 83.3479 9.39781 83.1337 9.21676C82.9307 9.02439 82.6319 8.87163 82.2372 8.75847C81.8539 8.64531 81.3916 8.51518 80.8504 8.36807C80.2415 8.19833 79.7284 8.02294 79.3112 7.84188C78.9053 7.64951 78.5952 7.41188 78.381 7.12899C78.1781 6.83477 78.0766 6.45569 78.0766 5.99174C78.0766 5.42595 78.2175 4.95068 78.4994 4.56595C78.7926 4.18121 79.1872 3.89265 79.6833 3.70028C80.1907 3.4966 80.7545 3.39475 81.3747 3.39475C82.0512 3.39475 82.6488 3.50226 83.1675 3.71726C83.6862 3.93226 84.109 4.23213 84.436 4.61687L83.8778 5.39766C83.5734 5.03555 83.1957 4.76963 82.7446 4.59989C82.3049 4.41884 81.8257 4.32831 81.307 4.32831C80.9462 4.32831 80.6023 4.37923 80.2753 4.48108C79.9483 4.5716 79.6777 4.73003 79.4635 4.95634C79.2605 5.17134 79.159 5.47121 79.159 5.85595C79.159 6.33122 79.3338 6.65938 79.6833 6.84043C80.0329 7.02149 80.5628 7.21385 81.2732 7.41754C81.9384 7.59859 82.5191 7.77965 83.0153 7.9607C83.5114 8.14175 83.8948 8.38505 84.1654 8.69057C84.436 8.98479 84.5713 9.39781 84.5713 9.92966C84.5713 10.7557 84.2612 11.4007 83.6411 11.8647C83.0209 12.3286 82.2034 12.5606 81.1886 12.5606ZM90.7007 11.9665C90.5654 12.0231 90.3173 12.1249 89.9565 12.272C89.5957 12.4191 89.1785 12.4927 88.7049 12.4927C88.2088 12.4927 87.7747 12.3513 87.4026 12.0684C87.0305 11.7855 86.8445 11.3611 86.8445 10.7953V4.4641H85.6267V3.54752H86.8445V0.560135H87.9946V3.54752H90.0242V4.4641H87.9946V10.4728C88.0171 10.801 88.1299 11.0443 88.3329 11.2027C88.5471 11.3498 88.7895 11.4234 89.0601 11.4234C89.3758 11.4234 89.6577 11.3724 89.9058 11.2706C90.1651 11.1574 90.3286 11.0782 90.3963 11.033L90.7007 11.9665ZM96.941 12.5606C96.2645 12.5606 95.6613 12.4078 95.1313 12.1023C94.6014 11.7968 94.1842 11.3781 93.8797 10.8462V12.3909H91.9009V0H94.1672V5.05819C94.483 4.52634 94.8945 4.10765 95.4019 3.80213C95.9206 3.4966 96.5238 3.34383 97.2116 3.34383C97.9784 3.34383 98.6493 3.55884 99.2243 3.98884C99.8107 4.40752 100.267 4.96766 100.594 5.66924C100.921 6.37082 101.085 7.1403 101.085 7.97767C101.085 8.83768 100.904 9.61281 100.544 10.3031C100.183 10.9933 99.6866 11.5422 99.0552 11.9495C98.435 12.3569 97.7303 12.5606 96.941 12.5606ZM96.3152 10.6256C96.8001 10.6256 97.2229 10.5068 97.5837 10.2691C97.9558 10.0315 98.2434 9.71466 98.4463 9.3186C98.6606 8.91123 98.7677 8.46991 98.7677 7.99465C98.7677 7.50807 98.6662 7.06109 98.4632 6.65372C98.2715 6.23503 98.0009 5.90122 97.6514 5.65227C97.3019 5.40332 96.9016 5.27884 96.4505 5.27884C95.9544 5.27884 95.4978 5.44858 95.0806 5.78806C94.6746 6.11622 94.3702 6.52359 94.1672 7.01017V9.13189C94.3138 9.57321 94.6014 9.93532 95.0298 10.2182C95.4583 10.4898 95.8868 10.6256 96.3152 10.6256ZM102.536 9.064V3.4966H104.802V8.57176C104.802 9.94097 105.293 10.6256 106.274 10.6256C106.713 10.6256 107.136 10.4955 107.542 10.2352C107.959 9.96361 108.298 9.55624 108.557 9.01307V3.4966H110.823V9.84479C110.823 10.0937 110.863 10.2691 110.942 10.371C111.021 10.4615 111.162 10.5181 111.365 10.5407V12.3909C111.139 12.4361 110.947 12.4644 110.79 12.4757C110.643 12.487 110.508 12.4927 110.384 12.4927C109.978 12.4927 109.645 12.4022 109.386 12.2211C109.138 12.0287 108.991 11.7685 108.946 11.4403L108.895 10.7274C108.501 11.3385 107.993 11.7968 107.373 12.1023C106.753 12.4078 106.071 12.5606 105.327 12.5606C104.413 12.5606 103.72 12.2664 103.246 11.678C102.773 11.0782 102.536 10.2069 102.536 9.064ZM126.843 12.3909H124.577V7.40057C124.577 6.69898 124.453 6.18411 124.205 5.85595C123.968 5.51648 123.635 5.34674 123.207 5.34674C122.756 5.34674 122.333 5.52214 121.938 5.87293C121.544 6.2124 121.262 6.65938 121.093 7.21385V12.3909H118.826V7.40057C118.826 6.68767 118.702 6.16714 118.454 5.83898C118.217 5.51082 117.885 5.34674 117.456 5.34674C117.016 5.34674 116.594 5.51648 116.188 5.85595C115.793 6.19543 115.511 6.6424 115.342 7.19688V12.3909H113.076V3.4966H115.122V5.14305C115.449 4.56595 115.895 4.12463 116.458 3.8191C117.033 3.50226 117.687 3.34383 118.42 3.34383C119.153 3.34383 119.723 3.52489 120.128 3.88699C120.546 4.2491 120.811 4.69608 120.923 5.22792C121.273 4.61687 121.73 4.15292 122.293 3.83607C122.857 3.50791 123.489 3.34383 124.188 3.34383C124.74 3.34383 125.186 3.44568 125.524 3.64936C125.873 3.84173 126.144 4.10765 126.336 4.44713C126.527 4.77529 126.657 5.14871 126.725 5.5674C126.804 5.98608 126.843 6.41043 126.843 6.84043V12.3909ZM134.127 12.5606C133.428 12.5606 132.819 12.4022 132.3 12.0853C131.782 11.7685 131.376 11.3498 131.082 10.8293V16.0063H128.816V3.4966H130.795V5.02424C131.122 4.50371 131.545 4.09634 132.063 3.80213C132.593 3.4966 133.191 3.34383 133.856 3.34383C134.657 3.34383 135.367 3.55318 135.987 3.97186C136.607 4.37923 137.098 4.93371 137.459 5.63529C137.82 6.32556 138 7.08938 138 7.92675C138 8.79807 137.831 9.58452 137.493 10.2861C137.166 10.9764 136.709 11.5309 136.123 11.9495C135.548 12.3569 134.882 12.5606 134.127 12.5606ZM133.366 10.6256C133.828 10.6256 134.228 10.5011 134.567 10.2522C134.916 9.9919 135.187 9.65808 135.378 9.25071C135.581 8.83202 135.683 8.3907 135.683 7.92675C135.683 7.42886 135.576 6.98188 135.362 6.58582C135.147 6.17845 134.854 5.86161 134.482 5.63529C134.121 5.39766 133.704 5.27884 133.23 5.27884C132.802 5.27884 132.374 5.42029 131.945 5.70319C131.517 5.98608 131.229 6.34253 131.082 6.77254V8.86031C131.285 9.35821 131.595 9.77689 132.013 10.1164C132.43 10.4558 132.881 10.6256 133.366 10.6256Z" fill="black" />
    <path d="M31.0171 19.2496C40.671 18.7586 48.4122 10.8331 48.883 0.954093C48.9081 0.427726 48.4795 0 47.9541 0H31.0173C30.4919 0 30.0658 0.427192 30.0658 0.95415V18.3197C30.0658 18.8466 30.4923 19.2763 31.0171 19.2496Z" fill="#FEBB02" />
    <path d="M30.0658 0.947373C30.0658 0.424158 30.4944 0 31.0228 0H54.2324C55.818 0 57.1034 1.27245 57.1034 2.84212V6.02622C57.1034 7.59588 55.818 8.86834 54.2324 8.86834H30.0658V0.947373Z" fill="#FEBB02" />
    <path d="M25.6537 19.2496C15.9997 18.7586 8.25861 10.8331 7.78788 0.954093C7.7628 0.427726 8.19119 0 8.71666 0H25.6535C26.1789 0 26.605 0.427192 26.605 0.95415V18.3197C26.605 18.8466 26.1786 19.2763 25.6537 19.2496Z" fill="#FEBB02" />
    <path d="M26.605 0.947373C26.605 0.424158 26.1797 0 25.6552 0H2.84942C1.27573 0 0 1.27245 0 2.84212V6.02622C0 7.59588 1.27573 8.86834 2.84942 8.86834H26.605V0.947373Z" fill="#FEBB02" />
</svg>