<svg width="1121" height="1018" viewBox="0 0 1121 1018" fill="none" xmlns="http://www.w3.org/2000/svg">
<g clip-path="url(#clip0)">
<path d="M560.3 888.6C769.782 888.6 939.6 718.782 939.6 509.3C939.6 299.818 769.782 130 560.3 130C350.818 130 181 299.818 181 509.3C181 718.782 350.818 888.6 560.3 888.6Z" fill="#D1E2FA"/>
<path d="M526.267 366.934C526.267 366.934 535.367 362.634 530.367 308.634C530.767 251.334 526.567 220.134 573.967 214.134C615.867 215.834 629.567 236.334 630.367 247.934C631.167 259.534 631.267 259.434 631.267 259.434C631.267 259.434 627.167 314.734 627.667 316.434C628.267 318.134 628.767 342.634 628.767 342.634C628.767 342.634 629.667 362.034 626.167 367.734C622.767 373.434 617.567 380.834 613.867 382.534C610.167 384.234 605.267 386.834 605.267 386.834C605.267 386.834 612.967 411.634 609.567 424.134C607.567 432.834 523.367 425.434 526.267 366.934Z" fill="#FADED6"/>
<path d="M401.166 871.334C417.766 879.434 438.166 887.734 461.966 894.434C492.366 903.034 519.566 906.734 541.466 907.934C533.366 745.634 525.466 582.934 517.366 420.634L517.166 416.834C517.166 416.834 510.366 405.434 511.066 394.034C511.866 382.634 509.566 374.234 509.566 374.234C509.566 374.234 409.966 442.634 407.666 446.434C405.466 450.334 405.766 862.234 401.166 871.334Z" fill="#6B5EFA"/>
<path d="M113.066 773.834C113.066 773.834 112.866 775.434 104.466 782.934C100.366 786.634 96.4657 790.734 86.1657 795.234C81.8657 797.134 68.7657 807.734 66.7657 810.334C62.4657 816.234 60.0657 818.534 49.7657 832.234C42.3657 842.034 23.5657 849.534 35.1657 831.734C39.7657 824.734 51.8657 810.134 65.6657 797.234C61.6657 797.234 34.2657 823.734 34.2657 823.734C34.2657 823.734 18.2657 841.734 13.1657 838.234C8.06571 834.834 31.6657 800.034 49.9657 793.734C49.9657 793.734 24.2657 806.534 12.8657 820.534C1.46571 834.534 -6.53429 818.834 -1.43429 813.734C3.66571 808.634 26.4657 786.634 31.9657 784.034C37.4657 781.434 -6.23429 810.534 -13.6343 807.734C-21.0343 804.834 -18.4343 792.634 16.8657 785.734C36.2657 773.234 41.6657 764.634 41.6657 764.634C41.6657 764.634 17.6657 785.434 15.1657 784.334C12.5657 783.234 -1.93429 776.034 38.5657 741.834C38.5657 741.834 59.9657 722.134 95.5657 730.734C140.466 741.534 113.066 773.834 113.066 773.834Z" fill="#FADED6"/>
<path d="M449.766 574.535C449.766 574.535 419.366 743.335 320.466 767.635C221.566 791.935 118.166 782.835 118.166 782.835C118.166 782.835 84.6657 746.335 90.7657 717.435C96.8657 688.535 258.066 677.935 274.766 647.435C291.466 617.035 410.166 443.635 410.166 443.635C410.166 443.635 466.466 501.535 449.766 574.535Z" fill="#6B5EFA"/>
<path d="M629.166 282.634C654.866 281.134 914.966 248.834 914.966 248.834C914.966 248.834 921.166 326.834 914.566 326.334C907.866 325.834 629.266 294.134 629.266 294.134C625.466 292.834 623.366 290.434 623.566 287.934C623.866 284.534 628.666 282.734 629.166 282.634Z" fill="#6B5EFA"/>
<path d="M897.066 287.034C897.066 308.934 906.766 326.734 918.666 326.734C930.666 326.734 940.266 308.934 940.266 287.034C940.266 265.134 930.566 247.334 918.666 247.334C917.166 247.334 915.666 247.634 914.266 248.134C904.466 251.834 897.066 267.834 897.066 287.034Z" fill="#6B5EFA"/>
<path d="M918.566 318.134C927.679 318.134 935.066 304.031 935.066 286.634C935.066 269.237 927.679 255.134 918.566 255.134C909.454 255.134 902.066 269.237 902.066 286.634C902.066 304.031 909.454 318.134 918.566 318.134Z" fill="#6B5EFA"/>
<path d="M807.167 329.734C807.167 329.734 808.667 317.334 814.367 283.634C821.267 242.334 802.667 230.834 765.167 264.734C727.667 298.634 779.767 343.734 779.767 343.734L807.167 329.734Z" fill="#FADED6"/>
<path d="M692.166 562.834C692.166 562.834 748.666 671.034 819.966 669.334C976.566 665.534 822.966 349.934 812.366 325.634C810.866 330.234 790.266 316.934 764.466 324.534C738.566 332.134 779.166 488.834 770.166 478.534C700.466 398.534 694.866 400.934 694.866 400.934L692.166 562.834Z" fill="#6B5EFA"/>
<path d="M530.567 387.234C530.567 387.234 543.067 422.634 605.867 424.834C609.267 403.134 603.967 388.034 603.967 388.034L613.567 376.934C613.567 376.934 652.067 382.634 653.767 456.234C655.467 529.834 675.867 892.334 675.867 892.334C651.667 899.834 616.367 907.834 580.167 908.634C570.767 908.834 561.667 908.934 552.967 908.534C543.567 734.134 534.167 559.334 524.867 384.934L530.567 387.234Z" fill="#36436C"/>
<path d="M537.767 422.935L517.467 420.635L541.567 907.935C544.067 908.135 546.667 908.235 549.267 908.335C552.867 908.435 556.467 908.535 559.867 908.635C552.467 746.735 545.067 584.835 537.767 422.935Z" fill="#6B5EFA"/>
<path d="M675.867 892.334C674.167 892.934 672.467 893.334 670.767 893.834C667.567 894.834 664.467 895.634 661.467 896.434C651.267 735.734 641.067 575.134 630.867 414.534L652.367 415.834L675.867 892.334Z" fill="#6B5EFA"/>
<path d="M596.266 363.635C596.266 363.635 716.366 387.935 717.966 430.535C719.466 473.135 737.566 867.435 737.566 867.435C729.566 871.135 720.966 875.535 709.066 880.335C698.266 884.635 690.866 887.935 675.866 892.335C675.866 892.335 653.266 434.135 652.566 424.435C651.266 406.835 643.066 392.935 596.266 363.635Z" fill="#6B5EFA"/>
<path d="M525.967 366.635L537.767 422.935C537.767 422.935 521.367 424.035 517.467 420.635C511.667 415.635 507.167 388.735 509.667 374.235C510.767 367.335 525.967 366.635 525.967 366.635Z" fill="#6B5EFA"/>
<path d="M651.165 415.834C640.765 372.134 621.565 373.534 612.065 370.634C603.565 368.034 588.065 366.634 600.665 376.934C613.165 387.234 630.865 414.534 630.865 414.534" fill="#6B5EFA"/>
<path d="M529.566 309.934C529.566 309.934 538.966 310.834 540.066 310.534C541.166 310.234 532.966 291.734 539.466 291.134C546.066 290.534 550.566 292.834 549.466 306.834C548.366 320.834 550.366 354.034 555.866 361.734C561.466 369.434 568.166 392.934 603.766 388.034C612.166 386.934 613.866 384.034 616.366 381.534C629.266 368.534 634.966 373.534 627.266 321.934C624.966 319.334 607.066 303.734 583.366 333.634C574.766 341.334 559.166 342.234 558.566 327.334C557.966 312.534 557.466 279.434 557.466 279.434C557.466 279.434 568.066 254.934 560.066 247.534C552.066 240.134 534.966 237.234 534.966 237.234C534.966 237.234 531.866 240.134 530.366 264.534C529.766 274.934 529.566 292.934 529.566 309.934Z" fill="#2A3952"/>
<path d="M613.167 906.034L604.467 424.434L605.767 424.534L614.567 905.834L613.167 906.034Z" fill="#6B5EFA"/>
<path d="M530.667 260.034C530.667 260.034 530.167 227.634 550.267 219.734C571.467 211.434 598.967 209.934 622.967 230.434C622.967 230.434 628.867 237.334 630.967 244.534C631.467 246.034 632.367 258.034 632.367 258.034C618.867 260.834 601.367 263.234 582.667 263.834C576.267 264.034 570.067 263.934 564.167 263.734C551.667 263.234 540.467 261.934 530.767 260.434" fill="#6B5EFA"/>
<path d="M662.066 264.234L572.666 263.334C572.666 263.334 602.766 263.534 632.266 258.034C660.666 257.834 664.966 252.734 667.566 256.134C670.166 259.534 662.066 264.234 662.066 264.234Z" fill="#6B5EFA"/>
</g>
<defs>
<clipPath id="clip0">
<rect width="1121" height="1018" fill="white"/>
</clipPath>
</defs>
</svg>
